<svg width="96" height="96" viewBox="0 0 96 96" fill="none" xmlns="http://www.w3.org/2000/svg">
<circle cx="48" cy="48" r="48" fill="url(#paint0_linear_291_1309)"/>
<path d="M33.7585 59.6758C33.7585 60.466 34.3969 61.1044 35.1871 61.1044H60.8121C61.6023 61.1044 62.2407 60.466 62.2407 59.6758V49.274C62.2407 41.4079 55.8657 35.0329 47.9996 35.0329C40.1335 35.0329 33.7585 41.4079 33.7585 49.274V59.6758ZM36.9728 49.274C36.9728 43.1847 41.9103 38.2472 47.9996 38.2472C54.0889 38.2472 59.0264 43.1847 59.0264 49.274V57.8901H43.1782V50.2561C43.1782 50.0106 42.9773 49.8097 42.7318 49.8097H40.7675C40.5219 49.8097 40.321 50.0106 40.321 50.2561V57.8901H36.9728V49.274ZM34.8255 38.0017L36.5934 36.2338C36.7317 36.0954 36.7317 35.8677 36.5934 35.7294L33.5621 32.6981C33.495 32.6316 33.4043 32.5944 33.3099 32.5944C33.2154 32.5944 33.1248 32.6316 33.0576 32.6981L31.2898 34.466C31.2233 34.5331 31.186 34.6237 31.186 34.7182C31.186 34.8127 31.2233 34.9033 31.2898 34.9704L34.321 38.0017C34.4594 38.1401 34.6826 38.1401 34.8255 38.0017ZM64.7184 34.466L62.9505 32.6981C62.8834 32.6316 62.7927 32.5944 62.6983 32.5944C62.6038 32.5944 62.5132 32.6316 62.446 32.6981L59.4148 35.7294C59.3483 35.7965 59.311 35.8871 59.311 35.9816C59.311 36.076 59.3483 36.1667 59.4148 36.2338L61.1826 38.0017C61.321 38.1401 61.5487 38.1401 61.6871 38.0017L64.7184 34.9704C64.8568 34.8276 64.8568 34.6044 64.7184 34.466V34.466ZM62.2853 63.9615H33.7139C32.9237 63.9615 32.2853 64.5999 32.2853 65.3901V66.4615C32.2853 66.6579 32.446 66.8186 32.6425 66.8186H63.3568C63.5532 66.8186 63.7139 66.6579 63.7139 66.4615V65.3901C63.7139 64.5999 63.0755 63.9615 62.2853 63.9615ZM46.7496 32.1758H49.2496C49.446 32.1758 49.6068 32.0151 49.6068 31.8186V27.5329C49.6068 27.3365 49.446 27.1758 49.2496 27.1758H46.7496C46.5532 27.1758 46.3925 27.3365 46.3925 27.5329V31.8186C46.3925 32.0151 46.5532 32.1758 46.7496 32.1758Z" fill="white"/>
<defs>
<linearGradient id="paint0_linear_291_1309" x1="102.289" y1="109.793" x2="129.076" y2="24.7821" gradientUnits="userSpaceOnUse">
<stop stop-color="#00C9D3"/>
<stop offset="1" stop-color="#3800D8"/>
</linearGradient>
</defs>
</svg>
