<svg width="96" height="96" viewBox="0 0 96 96" fill="none" xmlns="http://www.w3.org/2000/svg">
<circle cx="48" cy="48" r="48" fill="url(#paint0_linear_291_1324)"/>
<path d="M61.6666 63H38.3333V64.6667C38.3333 65.1087 38.1577 65.5327 37.8452 65.8452C37.5326 66.1578 37.1087 66.3334 36.6666 66.3334H35C34.558 66.3334 34.134 66.1578 33.8215 65.8452C33.5089 65.5327 33.3333 65.1087 33.3333 64.6667V48L37.3616 41.285C37.6578 40.7915 38.0767 40.383 38.5776 40.0994C39.0785 39.8158 39.6444 39.6667 40.22 39.6667H59.78C60.3556 39.6667 60.9214 39.8158 61.4223 40.0994C61.9232 40.383 62.3422 40.7915 62.6383 41.285L66.6666 48V64.6667C66.6666 65.1087 66.4911 65.5327 66.1785 65.8452C65.8659 66.1578 65.442 66.3334 65 66.3334H63.3333C62.8913 66.3334 62.4674 66.1578 62.1548 65.8452C61.8422 65.5327 61.6666 65.1087 61.6666 64.6667V63ZM63.3333 51.3334H36.6666V59.6667H63.3333V51.3334ZM37.22 48H62.78L59.78 43H40.22L37.22 48ZM39.0666 33.7334L40.8333 31.9634L42.6 33.73C42.9497 34.0796 43.1879 34.5251 43.2844 35.0101C43.3809 35.495 43.3314 35.9978 43.1423 36.4546C42.9531 36.9115 42.6326 37.302 42.2215 37.5767C41.8103 37.8514 41.327 37.9981 40.8325 37.9981C40.338 37.9981 39.8546 37.8514 39.4435 37.5767C39.0323 37.302 38.7119 36.9115 38.5227 36.4546C38.3335 35.9978 38.284 35.495 38.3806 35.0101C38.4771 34.5251 38.7153 34.0796 39.065 33.73L39.0666 33.7334ZM48.2333 33.7334L50 31.9634L51.7666 33.73C52.1164 34.0796 52.3545 34.5251 52.4511 35.0101C52.5476 35.495 52.4981 35.9978 52.3089 36.4546C52.1197 36.9115 51.7993 37.302 51.3882 37.5767C50.977 37.8514 50.4936 37.9981 49.9991 37.9981C49.5047 37.9981 49.0213 37.8514 48.6101 37.5767C48.199 37.302 47.8786 36.9115 47.6894 36.4546C47.5002 35.9978 47.4507 35.495 47.5472 35.0101C47.6438 34.5251 47.8819 34.0796 48.2316 33.73L48.2333 33.7334ZM57.4 33.7334L59.1666 31.9634L60.9333 33.73C61.283 34.0796 61.5212 34.5251 61.6177 35.0101C61.7142 35.495 61.6648 35.9978 61.4756 36.4546C61.2864 36.9115 60.966 37.302 60.5548 37.5767C60.1437 37.8514 59.6603 37.9981 59.1658 37.9981C58.6713 37.9981 58.1879 37.8514 57.7768 37.5767C57.3657 37.302 57.0452 36.9115 56.856 36.4546C56.6668 35.9978 56.6174 35.495 56.7139 35.0101C56.8104 34.5251 57.0486 34.0796 57.3983 33.73L57.4 33.7334ZM40.8333 58C40.1703 58 39.5344 57.7367 39.0655 57.2678C38.5967 56.799 38.3333 56.1631 38.3333 55.5C38.3333 54.837 38.5967 54.2011 39.0655 53.7323C39.5344 53.2634 40.1703 53 40.8333 53C41.4964 53 42.1322 53.2634 42.6011 53.7323C43.0699 54.2011 43.3333 54.837 43.3333 55.5C43.3333 56.1631 43.0699 56.799 42.6011 57.2678C42.1322 57.7367 41.4964 58 40.8333 58ZM59.1666 58C58.5036 58 57.8677 57.7367 57.3989 57.2678C56.93 56.799 56.6666 56.1631 56.6666 55.5C56.6666 54.837 56.93 54.2011 57.3989 53.7323C57.8677 53.2634 58.5036 53 59.1666 53C59.8297 53 60.4656 53.2634 60.9344 53.7323C61.4033 54.2011 61.6666 54.837 61.6666 55.5C61.6666 56.1631 61.4033 56.799 60.9344 57.2678C60.4656 57.7367 59.8297 58 59.1666 58Z" fill="white"/>
<defs>
<linearGradient id="paint0_linear_291_1324" x1="130.748" y1="111.429" x2="38.4013" y2="-14.1155" gradientUnits="userSpaceOnUse">
<stop stop-color="#00FF75"/>
<stop offset="1" stop-color="#00A3FF"/>
</linearGradient>
</defs>
</svg>
