<svg width="96" height="96" viewBox="0 0 96 96" fill="none" xmlns="http://www.w3.org/2000/svg">
<circle cx="48" cy="48" r="48" fill="url(#paint0_linear_291_1310)"/>
<path d="M43.3334 62.3335V52.3335H56.6667V62.3335H61.6667V35.6668H38.3334V62.3335H43.3334ZM46.6667 62.3335H53.3334V55.6668H46.6667V62.3335ZM65 62.3335H68.3334V65.6668H31.6667V62.3335H35V34.0002C35 33.5581 35.1756 33.1342 35.4882 32.8217C35.8007 32.5091 36.2247 32.3335 36.6667 32.3335H63.3334C63.7754 32.3335 64.1993 32.5091 64.5119 32.8217C64.8244 33.1342 65 33.5581 65 34.0002V62.3335ZM48.3334 42.3335V39.0002H51.6667V42.3335H55V45.6668H51.6667V49.0002H48.3334V45.6668H45V42.3335H48.3334Z" fill="white"/>
<defs>
<linearGradient id="paint0_linear_291_1310" x1="102.289" y1="109.793" x2="129.076" y2="24.7821" gradientUnits="userSpaceOnUse">
<stop stop-color="#00C9D3"/>
<stop offset="1" stop-color="#3800D8"/>
</linearGradient>
</defs>
</svg>
