<svg width="96" height="96" viewBox="0 0 96 96" fill="none" xmlns="http://www.w3.org/2000/svg">
<circle cx="48" cy="48" r="48" fill="url(#paint0_linear_291_1333)"/>
<path d="M62.6993 55.0781C61.0392 54.1172 59.0157 54.375 57.6525 55.5781L55.5822 54.3789V48.4531C55.5822 47.8398 55.254 47.2695 54.7228 46.9648L49.4103 43.9063V41.2852C51.1368 40.6992 52.379 39.0664 52.379 37.1406C52.379 34.7227 50.422 32.7656 48.004 32.7656C45.5861 32.7656 43.629 34.7227 43.629 37.1406C43.629 39.0664 44.8712 40.6992 46.5978 41.2852V43.9063L41.2853 46.9648C40.754 47.2695 40.4259 47.8398 40.4259 48.4531V54.375L38.3556 55.5742C36.9923 54.3711 34.965 54.1133 33.3087 55.0742C31.2189 56.2852 30.5079 58.957 31.7072 61.0469C32.9103 63.1367 35.5704 63.8555 37.6525 62.6484C39.3126 61.6875 40.1017 59.7969 39.7462 58.0078L41.6486 56.9023L47.1407 60.0664C47.4064 60.2188 47.7032 60.2969 48.0001 60.2969C48.297 60.2969 48.5939 60.2188 48.8595 60.0664L54.3478 56.9062L56.2501 58.0117C55.8947 59.7969 56.6876 61.6914 58.3439 62.6523C60.4259 63.8594 63.09 63.1445 64.2892 61.0508C65.4923 58.957 64.7814 56.2852 62.6993 55.0781V55.0781ZM36.4103 60.4844C36.1981 60.6073 35.9637 60.687 35.7206 60.7189C35.4775 60.7509 35.2305 60.7344 34.9938 60.6705C34.7571 60.6066 34.5353 60.4965 34.3413 60.3466C34.1473 60.1967 33.9849 60.0098 33.8634 59.7969C33.3478 58.9023 33.6525 57.7539 34.547 57.2383C34.7592 57.1154 34.9935 57.0357 35.2366 57.0037C35.4797 56.9718 35.7268 56.9882 35.9635 57.0521C36.2002 57.116 36.4219 57.2261 36.6159 57.3761C36.8099 57.526 36.9724 57.7128 37.0939 57.9258C37.6095 58.8203 37.3048 59.9687 36.4103 60.4844ZM46.1251 37.1406C46.1351 36.65 46.3371 36.1828 46.6876 35.8393C47.0382 35.4959 47.5094 35.3035 48.0001 35.3035C48.4909 35.3035 48.9621 35.4959 49.3126 35.8393C49.6632 36.1828 49.8651 36.65 49.8751 37.1406C49.8651 37.6313 49.6632 38.0985 49.3126 38.4419C48.9621 38.7854 48.4909 38.9777 48.0001 38.9777C47.5094 38.9777 47.0382 38.7854 46.6876 38.4419C46.3371 38.0985 46.1351 37.6313 46.1251 37.1406V37.1406ZM52.7657 54.5703L48.0001 57.3164L43.2345 54.5703V49.0859L48.0001 46.3398L52.7657 49.0859V54.5703V54.5703ZM62.1368 59.8008C61.6212 60.6953 60.4806 61.0039 59.59 60.4883C58.6993 59.9727 58.3907 58.8242 58.9064 57.9297C59.422 57.0352 60.5626 56.7266 61.4532 57.2422C62.3478 57.7578 62.6525 58.9023 62.1368 59.8008Z" fill="white"/>
<defs>
<linearGradient id="paint0_linear_291_1333" x1="130.748" y1="111.429" x2="38.4013" y2="-14.1155" gradientUnits="userSpaceOnUse">
<stop stop-color="#00FF75"/>
<stop offset="1" stop-color="#00A3FF"/>
</linearGradient>
</defs>
</svg>
