<svg width="96" height="96" viewBox="0 0 96 96" fill="none" xmlns="http://www.w3.org/2000/svg">
<circle cx="48" cy="48" r="48" fill="url(#paint0_linear_291_1327)"/>
<path d="M38.8333 31.3335H57.1667C57.4254 31.3335 57.6806 31.3937 57.912 31.5095C58.1434 31.6252 58.3448 31.7932 58.5 32.0002L63 38.0002V63.0002C63 63.4422 62.8244 63.8661 62.5118 64.1787C62.1993 64.4912 61.7754 64.6668 61.3333 64.6668H34.6667C34.2246 64.6668 33.8007 64.4912 33.4882 64.1787C33.1756 63.8661 33 63.4422 33 63.0002V38.0002L37.5 32.0002C37.6552 31.7932 37.8566 31.6252 38.088 31.5095C38.3194 31.3937 38.5746 31.3335 38.8333 31.3335ZM59.6667 41.3335H36.3333V61.3335H59.6667V41.3335ZM58.8333 38.0002L56.3333 34.6668H39.6667L37.1667 38.0002H58.8333ZM43 44.6668V48.0002C43 49.3262 43.5268 50.598 44.4645 51.5357C45.4021 52.4734 46.6739 53.0002 48 53.0002C49.3261 53.0002 50.5979 52.4734 51.5355 51.5357C52.4732 50.598 53 49.3262 53 48.0002V44.6668H56.3333V48.0002C56.3333 50.2103 55.4554 52.3299 53.8926 53.8927C52.3298 55.4555 50.2101 56.3335 48 56.3335C45.7899 56.3335 43.6702 55.4555 42.1074 53.8927C40.5446 52.3299 39.6667 50.2103 39.6667 48.0002V44.6668H43Z" fill="white"/>
<defs>
<linearGradient id="paint0_linear_291_1327" x1="6.40089" y1="2.02458" x2="79.0458" y2="5.10252" gradientUnits="userSpaceOnUse">
<stop stop-color="#FF004D"/>
<stop offset="1" stop-color="#FFD600"/>
</linearGradient>
</defs>
</svg>
