<svg width="96" height="96" viewBox="0 0 96 96" fill="none" xmlns="http://www.w3.org/2000/svg">
<circle cx="48" cy="48" r="48" fill="url(#paint0_linear_291_1322)"/>
<path d="M33 58.8335V36.3335C33 35.0074 33.5268 33.7356 34.4645 32.798C35.4021 31.8603 36.6739 31.3335 38 31.3335H61.3333C61.7754 31.3335 62.1993 31.5091 62.5118 31.8217C62.8244 32.1342 63 32.5581 63 33.0002V63.0002C63 63.4422 62.8244 63.8661 62.5118 64.1787C62.1993 64.4912 61.7754 64.6668 61.3333 64.6668H38.8333C37.2862 64.6668 35.8025 64.0523 34.7085 62.9583C33.6146 61.8643 33 60.3806 33 58.8335V58.8335ZM59.6667 61.3335V56.3335H38.8333C38.1703 56.3335 37.5344 56.5969 37.0656 57.0657C36.5967 57.5346 36.3333 58.1705 36.3333 58.8335C36.3333 59.4965 36.5967 60.1324 37.0656 60.6013C37.5344 61.0701 38.1703 61.3335 38.8333 61.3335H59.6667ZM36.3333 53.5618C37.1145 53.1909 37.9686 52.999 38.8333 53.0002H59.6667V34.6668H38C37.558 34.6668 37.134 34.8424 36.8215 35.155C36.5089 35.4675 36.3333 35.8915 36.3333 36.3335V53.5618Z" fill="white"/>
<defs>
<linearGradient id="paint0_linear_291_1322" x1="130.748" y1="111.429" x2="38.4013" y2="-14.1155" gradientUnits="userSpaceOnUse">
<stop stop-color="#00FF75"/>
<stop offset="1" stop-color="#00A3FF"/>
</linearGradient>
</defs>
</svg>
