<svg width="96" height="96" viewBox="0 0 96 96" fill="none" xmlns="http://www.w3.org/2000/svg">
<circle cx="48" cy="48" r="48" fill="url(#paint0_linear_291_1340)"/>
<path d="M51.4433 32.9998L67.32 60.4998C67.4663 60.7531 67.5433 61.0405 67.5433 61.3331C67.5433 61.6256 67.4663 61.913 67.32 62.1664C67.1737 62.4198 66.9634 62.6302 66.71 62.7765C66.4566 62.9227 66.1692 62.9998 65.8767 62.9998H34.1234C33.8308 62.9998 33.5434 62.9227 33.29 62.7765C33.0367 62.6302 32.8263 62.4198 32.68 62.1664C32.5337 61.913 32.4567 61.6256 32.4567 61.3331C32.4567 61.0405 32.5337 60.7531 32.68 60.4998L48.5567 32.9998C48.703 32.7464 48.9134 32.536 49.1667 32.3898C49.4201 32.2435 49.7075 32.1665 50 32.1665C50.2926 32.1665 50.58 32.2435 50.8333 32.3898C51.0867 32.536 51.2971 32.7464 51.4433 32.9998V32.9998ZM37.01 59.6664H62.99L50 37.1664L37.01 59.6664V59.6664ZM48.3333 54.6664H51.6667V57.9998H48.3333V54.6664ZM48.3333 42.9998H51.6667V51.3331H48.3333V42.9998Z" fill="white"/>
<defs>
<linearGradient id="paint0_linear_291_1340" x1="6.40089" y1="2.02458" x2="79.0458" y2="5.10252" gradientUnits="userSpaceOnUse">
<stop stop-color="#FF004D"/>
<stop offset="1" stop-color="#FFD600"/>
</linearGradient>
</defs>
</svg>
