<svg width="96" height="96" viewBox="0 0 96 96" fill="none" xmlns="http://www.w3.org/2000/svg">
<circle cx="48" cy="48" r="48" fill="url(#paint0_linear_291_1321)"/>
<path d="M55.1666 31.3333C56.1511 31.333 57.1195 31.5818 57.9819 32.0566C58.8443 32.5313 59.5725 33.2166 60.0987 34.0486C60.6249 34.8805 60.932 35.8321 60.9914 36.8148C61.0507 37.7974 60.8605 38.779 60.4383 39.6683L66 39.6667C66.442 39.6667 66.8659 39.8423 67.1785 40.1548C67.4911 40.4674 67.6666 40.8913 67.6666 41.3333V48C67.6666 48.442 67.4911 48.866 67.1785 49.1785C66.8659 49.4911 66.442 49.6667 66 49.6667H64.3333V63C64.3333 63.442 64.1577 63.866 63.8452 64.1785C63.5326 64.4911 63.1087 64.6667 62.6666 64.6667H39.3333C38.8913 64.6667 38.4674 64.4911 38.1548 64.1785C37.8422 63.866 37.6666 63.442 37.6666 63V49.6667H36C35.558 49.6667 35.134 49.4911 34.8215 49.1785C34.5089 48.866 34.3333 48.442 34.3333 48V41.3333C34.3333 40.8913 34.5089 40.4674 34.8215 40.1548C35.134 39.8423 35.558 39.6667 36 39.6667L41.5616 39.6683C40.9679 38.4211 40.836 37.0037 41.1895 35.6683C41.5429 34.333 42.3588 33.1664 43.4918 32.3763C44.6248 31.5861 46.0015 31.2237 47.3767 31.3535C48.7519 31.4832 50.0365 32.0968 51.0016 33.085C51.5434 32.5292 52.1911 32.0878 52.9066 31.7869C53.622 31.486 54.3905 31.3318 55.1666 31.3333V31.3333ZM61 49.6667H41V61.3333H61V49.6667ZM64.3333 43H37.6666V46.3333H64.3333V43ZM46.8333 34.6667C46.1913 34.667 45.574 34.9143 45.1093 35.3574C44.6447 35.8004 44.3683 36.4052 44.3374 37.0465C44.3066 37.6878 44.5236 38.3164 44.9436 38.802C45.3636 39.2876 45.9543 39.5931 46.5933 39.655L46.8333 39.6667H49.3333V37.1667C49.3333 36.5452 49.1018 35.946 48.6839 35.486C48.2661 35.0259 47.6919 34.738 47.0733 34.6783L46.8333 34.6667ZM55.1666 34.6667L54.9266 34.6783C54.3489 34.7337 53.8085 34.9883 53.398 35.3985C52.9874 35.8087 52.7324 36.349 52.6766 36.9267L52.6666 37.1667V39.6667H55.1666L55.4066 39.655C56.025 39.5951 56.5989 39.307 57.0165 38.847C57.4341 38.387 57.6654 37.788 57.6654 37.1667C57.6654 36.5454 57.4341 35.9464 57.0165 35.4864C56.5989 35.0263 56.025 34.7383 55.4066 34.6783L55.1666 34.6667Z" fill="white"/>
<defs>
<linearGradient id="paint0_linear_291_1321" x1="130.748" y1="111.429" x2="38.4013" y2="-14.1155" gradientUnits="userSpaceOnUse">
<stop stop-color="#00FF75"/>
<stop offset="1" stop-color="#00A3FF"/>
</linearGradient>
</defs>
</svg>
