<svg width="96" height="96" viewBox="0 0 96 96" fill="none" xmlns="http://www.w3.org/2000/svg">
<circle cx="48" cy="48" r="48" fill="url(#paint0_linear_291_1328)"/>
<path d="M64 49.6667V61.3333C64 61.7754 63.8244 62.1993 63.5118 62.5118C63.1993 62.8244 62.7753 63 62.3333 63H35.6666C35.2246 63 34.8007 62.8244 34.4881 62.5118C34.1756 62.1993 34 61.7754 34 61.3333V49.6667H32.3333V46.3333L34 38H64L65.6666 46.3333V49.6667H64ZM37.3333 49.6667V59.6667H60.6666V49.6667H37.3333ZM35.7333 46.3333H62.2666L61.2666 41.3333H36.7333L35.7333 46.3333ZM39 51.3333H52.3333V56.3333H39V51.3333ZM34 33H64V36.3333H34V33Z" fill="white"/>
<defs>
<linearGradient id="paint0_linear_291_1328" x1="6.40089" y1="2.02458" x2="79.0458" y2="5.10252" gradientUnits="userSpaceOnUse">
<stop stop-color="#FF004D"/>
<stop offset="1" stop-color="#FFD600"/>
</linearGradient>
</defs>
</svg>
