<svg width="96" height="96" viewBox="0 0 96 96" fill="none" xmlns="http://www.w3.org/2000/svg">
<circle cx="48" cy="48" r="48" fill="url(#paint0_linear_291_1326)"/>
<path d="M38 59.6669H58V43.2619L48 34.1719L38 43.2619V59.6669ZM59.6667 63.0002H36.3334C35.8913 63.0002 35.4674 62.8246 35.1548 62.512C34.8423 62.1995 34.6667 61.7756 34.6667 61.3335V46.3335H29.6667L46.8784 30.6869C47.1852 30.4077 47.5852 30.2529 48 30.2529C48.4149 30.2529 48.8148 30.4077 49.1217 30.6869L66.3334 46.3335H61.3334V61.3335C61.3334 61.7756 61.1578 62.1995 60.8452 62.512C60.5326 62.8246 60.1087 63.0002 59.6667 63.0002ZM41.3334 44.6669C44.4275 44.6669 47.395 45.896 49.5829 48.0839C51.7709 50.2719 53 53.2393 53 56.3335H49.6667C49.6667 54.1234 48.7887 52.0038 47.2259 50.441C45.6631 48.8782 43.5435 48.0002 41.3334 48.0002V44.6669ZM41.3334 51.3335C42.6594 51.3335 43.9312 51.8603 44.8689 52.798C45.8066 53.7357 46.3334 55.0074 46.3334 56.3335H41.3334V51.3335Z" fill="white"/>
<defs>
<linearGradient id="paint0_linear_291_1326" x1="6.40089" y1="2.02458" x2="79.0458" y2="5.10252" gradientUnits="userSpaceOnUse">
<stop stop-color="#FF004D"/>
<stop offset="1" stop-color="#FFD600"/>
</linearGradient>
</defs>
</svg>
