<svg width="96" height="96" viewBox="0 0 96 96" fill="none" xmlns="http://www.w3.org/2000/svg">
<circle cx="48" cy="48" r="48" fill="url(#paint0_linear_291_1312)"/>
<path d="M35 34H65C65.442 34 65.8659 34.1756 66.1785 34.4882C66.4911 34.8007 66.6666 35.2246 66.6666 35.6667V62.3333C66.6666 62.7754 66.4911 63.1993 66.1785 63.5118C65.8659 63.8244 65.442 64 65 64H35C34.558 64 34.134 63.8244 33.8215 63.5118C33.5089 63.1993 33.3333 62.7754 33.3333 62.3333V35.6667C33.3333 35.2246 33.5089 34.8007 33.8215 34.4882C34.134 34.1756 34.558 34 35 34V34ZM63.3333 49H36.6666V60.6667H63.3333V49ZM63.3333 42.3333V37.3333H36.6666V42.3333H63.3333Z" fill="white"/>
<defs>
<linearGradient id="paint0_linear_291_1312" x1="102.289" y1="109.793" x2="129.076" y2="24.7821" gradientUnits="userSpaceOnUse">
<stop stop-color="#00C9D3"/>
<stop offset="1" stop-color="#3800D8"/>
</linearGradient>
</defs>
</svg>
