<svg width="96" height="96" viewBox="0 0 96 96" fill="none" xmlns="http://www.w3.org/2000/svg">
<circle cx="48" cy="48" r="48" fill="url(#paint0_linear_291_1341)"/>
<path d="M38 41.0468V61.3335H58V34.6668H44.38L38 41.0468ZM35.155 39.1802L43 31.3335H59.6667C60.1087 31.3335 60.5326 31.5091 60.8452 31.8217C61.1578 32.1342 61.3334 32.5581 61.3334 33.0002V63.0002C61.3334 63.4422 61.1578 63.8661 60.8452 64.1787C60.5326 64.4912 60.1087 64.6668 59.6667 64.6668H36.3334C35.8913 64.6668 35.4674 64.4912 35.1548 64.1787C34.8423 63.8661 34.6667 63.4422 34.6667 63.0002V40.3568C34.6668 39.9148 34.8424 39.491 35.155 39.1785V39.1802ZM53 36.3335H56.3334V43.0002H53V36.3335ZM48 36.3335H51.3334V43.0002H48V36.3335ZM43 38.0002H46.3334V43.0002H43V38.0002Z" fill="white"/>
<defs>
<linearGradient id="paint0_linear_291_1341" x1="6.40089" y1="2.02458" x2="79.0458" y2="5.10252" gradientUnits="userSpaceOnUse">
<stop stop-color="#FF004D"/>
<stop offset="1" stop-color="#FFD600"/>
</linearGradient>
</defs>
</svg>
