<svg width="96" height="96" viewBox="0 0 96 96" fill="none" xmlns="http://www.w3.org/2000/svg">
<circle cx="48" cy="48" r="48" fill="url(#paint0_linear_291_1320)"/>
<path d="M45.9417 58.0002C45.7436 59.3907 45.0504 60.663 43.9895 61.5834C42.9286 62.5038 41.5712 63.0106 40.1667 63.0106C38.7622 63.0106 37.4048 62.5038 36.3439 61.5834C35.283 60.663 34.5898 59.3907 34.3917 58.0002H32.6667V38.0002C32.6667 37.5581 32.8423 37.1342 33.1548 36.8217C33.4674 36.5091 33.8913 36.3335 34.3334 36.3335H57.6667C58.1087 36.3335 58.5326 36.5091 58.8452 36.8217C59.1578 37.1342 59.3334 37.5581 59.3334 38.0002V41.3335H64.3334L69.3334 48.0935V58.0002H65.9417C65.7436 59.3907 65.0504 60.663 63.9895 61.5834C62.9286 62.5038 61.5712 63.0106 60.1667 63.0106C58.7622 63.0106 57.4048 62.5038 56.3439 61.5834C55.283 60.663 54.5898 59.3907 54.3917 58.0002H45.9417ZM56 39.6668H36V53.0835C36.6576 52.4122 37.4677 51.9096 38.3613 51.6187C39.2549 51.3278 40.2055 51.257 41.1323 51.4125C42.0591 51.568 42.9346 51.9451 43.6844 52.5117C44.4341 53.0783 45.0358 53.8176 45.4384 54.6668H54.895C55.175 54.0785 55.55 53.5435 56 53.0835V39.6668ZM59.3334 49.6668H66V49.1918L62.6534 44.6668H59.3334V49.6668ZM60.1667 59.6668C60.8299 59.6668 61.466 59.4034 61.935 58.9344C62.404 58.4654 62.6675 57.8293 62.6675 57.166C62.6675 56.5027 62.404 55.8666 61.935 55.3976C61.466 54.9286 60.8299 54.6652 60.1667 54.6652C59.5034 54.6652 58.8673 54.9286 58.3983 55.3976C57.9293 55.8666 57.6659 56.5027 57.6659 57.166C57.6659 57.8293 57.9293 58.4654 58.3983 58.9344C58.8673 59.4034 59.5034 59.6668 60.1667 59.6668V59.6668ZM42.6667 57.1668C42.6667 56.8385 42.602 56.5134 42.4764 56.2101C42.3507 55.9068 42.1666 55.6312 41.9345 55.3991C41.7023 55.1669 41.4267 54.9828 41.1234 54.8571C40.8201 54.7315 40.495 54.6668 40.1667 54.6668C39.8384 54.6668 39.5133 54.7315 39.21 54.8571C38.9067 54.9828 38.6311 55.1669 38.3989 55.3991C38.1668 55.6312 37.9826 55.9068 37.857 56.2101C37.7314 56.5134 37.6667 56.8385 37.6667 57.1668C37.6667 57.8299 37.9301 58.4658 38.3989 58.9346C38.8678 59.4034 39.5036 59.6668 40.1667 59.6668C40.8297 59.6668 41.4656 59.4034 41.9345 58.9346C42.4033 58.4658 42.6667 57.8299 42.6667 57.1668V57.1668Z" fill="white"/>
<defs>
<linearGradient id="paint0_linear_291_1320" x1="130.748" y1="111.429" x2="38.4013" y2="-14.1155" gradientUnits="userSpaceOnUse">
<stop stop-color="#00FF75"/>
<stop offset="1" stop-color="#00A3FF"/>
</linearGradient>
</defs>
</svg>
