<svg width="96" height="96" viewBox="0 0 96 96" fill="none" xmlns="http://www.w3.org/2000/svg">
<circle cx="48" cy="48" r="48" fill="url(#paint0_linear_291_1336)"/>
<path d="M50 31.3335C59.205 31.3335 66.6666 38.7952 66.6666 48.0002C66.6666 57.2052 59.205 64.6668 50 64.6668C40.795 64.6668 33.3333 57.2052 33.3333 48.0002C33.3333 38.7952 40.795 31.3335 50 31.3335ZM52.7833 54.6668H47.2166L44.9166 57.8285L45.84 60.6718C47.1828 61.1116 48.587 61.335 50 61.3335C51.4516 61.3335 52.85 61.1002 54.16 60.6718L55.0816 57.8285L52.7816 54.6668H52.7833ZM38.8233 46.1202L36.67 47.6818L36.6666 48.0002C36.6666 50.8835 37.5816 53.5518 39.1366 55.7335H42.32L44.525 52.7002L42.8116 47.4168L38.8233 46.1202V46.1202ZM61.1766 46.1202L57.1883 47.4168L55.475 52.7002L57.6783 55.7335H60.8616C62.473 53.4771 63.3374 50.7728 63.3333 48.0002L63.3283 47.6818L61.1766 46.1202V46.1202ZM53.8166 35.2218L51.6666 36.7885V40.9835L56.1566 44.2452L59.8883 43.0335L60.8116 40.1952C59.091 37.8133 56.633 36.0652 53.8183 35.2218H53.8166ZM46.18 35.2218C43.3651 36.0657 40.907 37.8143 39.1866 40.1968L40.11 43.0335L43.8416 44.2452L48.3333 40.9835V36.7885L46.1816 35.2218H46.18Z" fill="white"/>
<defs>
<linearGradient id="paint0_linear_291_1336" x1="130.748" y1="111.429" x2="38.4013" y2="-14.1155" gradientUnits="userSpaceOnUse">
<stop stop-color="#00FF75"/>
<stop offset="1" stop-color="#00A3FF"/>
</linearGradient>
</defs>
</svg>
