<svg width="96" height="96" viewBox="0 0 96 96" fill="none" xmlns="http://www.w3.org/2000/svg">
<circle cx="48" cy="48" r="48" fill="url(#paint0_linear_291_1308)"/>
<path d="M64 33V36.3333C64 52.3783 55.045 59.6667 44 59.6667H37.7383C37.4667 61.1867 37.3333 62.845 37.3333 64.6667H34C34 62.395 34.1933 60.3333 34.5767 58.4467C34.1933 56.29 34 53.3633 34 49.6667C34 40.4617 41.4617 33 50.6667 33C54 33 57.3333 34.6667 64 33ZM50.6667 36.3333C43.3033 36.3333 37.3333 42.3033 37.3333 49.6667C37.3333 50.27 37.3383 50.8517 37.35 51.41C39.44 48.1133 42.5017 45.5083 46.5067 43.22L48.16 46.1133C43.4017 48.8333 40.245 51.9233 38.6267 56.3333H44C54.025 56.3333 60.4517 49.7117 60.6617 36.98C58.375 37.2017 56.25 37.06 53.6283 36.6667C51.7117 36.3783 51.335 36.3333 50.6667 36.3333Z" fill="white"/>
<defs>
<linearGradient id="paint0_linear_291_1308" x1="102.289" y1="109.793" x2="129.076" y2="24.7821" gradientUnits="userSpaceOnUse">
<stop stop-color="#00C9D3"/>
<stop offset="1" stop-color="#3800D8"/>
</linearGradient>
</defs>
</svg>
