<svg width="96" height="96" viewBox="0 0 96 96" fill="none" xmlns="http://www.w3.org/2000/svg">
<circle cx="48" cy="48" r="48" fill="url(#paint0_linear_291_1339)"/>
<path d="M58.6666 39.6665H67V42.9998H58.6666V39.6665ZM55.3333 47.9998H67V51.3332H55.3333V47.9998ZM60.3333 56.3332H67V59.6665H60.3333V56.3332ZM30.3333 64.6665C30.3333 61.1303 31.7381 57.7389 34.2386 55.2384C36.739 52.7379 40.1304 51.3332 43.6666 51.3332C47.2029 51.3332 50.5943 52.7379 53.0947 55.2384C55.5952 57.7389 57 61.1303 57 64.6665H53.6666C53.6666 62.0143 52.6131 59.4708 50.7377 57.5954C48.8624 55.7201 46.3188 54.6665 43.6666 54.6665C41.0145 54.6665 38.4709 55.7201 36.5956 57.5954C34.7202 59.4708 33.6666 62.0143 33.6666 64.6665H30.3333ZM43.6666 49.6665C38.1416 49.6665 33.6666 45.1915 33.6666 39.6665C33.6666 34.1415 38.1416 29.6665 43.6666 29.6665C49.1916 29.6665 53.6666 34.1415 53.6666 39.6665C53.6666 45.1915 49.1916 49.6665 43.6666 49.6665ZM43.6666 46.3332C47.35 46.3332 50.3333 43.3498 50.3333 39.6665C50.3333 35.9832 47.35 32.9998 43.6666 32.9998C39.9833 32.9998 37 35.9832 37 39.6665C37 43.3498 39.9833 46.3332 43.6666 46.3332Z" fill="white"/>
<defs>
<linearGradient id="paint0_linear_291_1339" x1="6.40089" y1="2.02458" x2="79.0458" y2="5.10252" gradientUnits="userSpaceOnUse">
<stop stop-color="#FF004D"/>
<stop offset="1" stop-color="#FFD600"/>
</linearGradient>
</defs>
</svg>
