<svg width="19" height="19" viewBox="0 0 19 19" fill="none" xmlns="http://www.w3.org/2000/svg">
<path d="M9.5 1.1875C4.90957 1.1875 1.1875 4.90957 1.1875 9.5C1.1875 14.0904 4.90957 17.8125 9.5 17.8125C14.0904 17.8125 17.8125 14.0904 17.8125 9.5C17.8125 4.90957 14.0904 1.1875 9.5 1.1875ZM13.0903 6.78545L9.18271 12.2034C9.1281 12.2796 9.0561 12.3418 8.97269 12.3846C8.88928 12.4275 8.79685 12.4498 8.70308 12.4498C8.6093 12.4498 8.51688 12.4275 8.43346 12.3846C8.35005 12.3418 8.27805 12.2796 8.22344 12.2034L5.90967 8.99717C5.83916 8.89883 5.90967 8.76152 6.03027 8.76152H6.90049C7.08975 8.76152 7.26973 8.85244 7.38105 9.0083L8.70215 10.8415L11.6189 6.79658C11.7303 6.64258 11.9084 6.5498 12.0995 6.5498H12.9697C13.0903 6.5498 13.1608 6.68711 13.0903 6.78545V6.78545Z" fill="#52C41A"/>
</svg>
