<svg width="27" height="27" viewBox="0 0 27 27" fill="none" xmlns="http://www.w3.org/2000/svg">
<path d="M14.8655 13.5L21.7869 5.24971C21.9029 5.1126 21.8054 4.9043 21.6261 4.9043H19.522C19.3981 4.9043 19.2794 4.95967 19.1977 5.05459L13.4892 11.86L7.78068 5.05459C7.70158 4.95967 7.58293 4.9043 7.45636 4.9043H5.35226C5.17297 4.9043 5.07541 5.1126 5.19142 5.24971L12.1128 13.5L5.19142 21.7503C5.16543 21.7809 5.14876 21.8182 5.14338 21.858C5.13801 21.8977 5.14415 21.9382 5.16108 21.9746C5.17802 22.0109 5.20503 22.0417 5.23892 22.0632C5.27281 22.0846 5.31215 22.0959 5.35226 22.0957H7.45636C7.58029 22.0957 7.69894 22.0403 7.78068 21.9454L13.4892 15.14L19.1977 21.9454C19.2768 22.0403 19.3954 22.0957 19.522 22.0957H21.6261C21.8054 22.0957 21.9029 21.8874 21.7869 21.7503L14.8655 13.5Z" fill="#202020"/>
</svg>
