<svg width="131" height="33" viewBox="0 0 131 33" fill="none" xmlns="http://www.w3.org/2000/svg">
<path d="M33.0783 16.5523C33.0783 20.21 30.1169 23.1784 26.4522 23.1784C22.7945 23.1784 19.8261 20.2169 19.8261 16.5523C19.8261 12.8946 22.7876 9.92613 26.4522 9.92613V3.3C19.1299 3.3 13.2 9.23685 13.2 16.5523C13.2 23.8746 19.1368 29.8045 26.4522 29.8045C33.7746 29.8045 39.7045 23.8677 39.7045 16.5523H33.0783V16.5523Z" fill="white"/>
<path d="M39.7045 3.3H33.0784V9.92613H39.7045V3.3Z" fill="white"/>
<path d="M100.4 15.3936C100.02 15.305 99.8194 15.2845 99.439 15.2845C97.3571 15.2845 96.2158 16.4566 96.2158 19.012V23.4482H93.7743V13.1652H96.2158V14.8211C96.6862 13.8739 98.0557 13.0358 99.439 13.0358C99.8194 13.0358 100.131 13.0834 100.4 13.1925V15.3936Z" fill="white"/>
<path d="M112.864 13.2914H115.277V14.7106C115.92 13.6209 117.116 13.0358 118.64 13.0358C120.123 13.0358 121.162 13.5604 121.736 14.4079C122.242 15.168 122.399 16.0223 122.399 17.4146V23.4482H119.986V18.2016C119.986 16.4595 119.481 15.1277 117.751 15.1277C116.07 15.1277 115.27 16.4595 115.27 18.2016V23.4482H112.858V13.2914H112.864Z" fill="white"/>
<path d="M103.365 17.3291H108.603C108.603 15.7813 107.543 14.8258 106.05 14.8258C104.536 14.819 103.365 15.6737 103.365 17.3291ZM103.365 19.0922C103.476 20.5525 104.132 21.7301 106.189 21.7301C107.591 21.7301 108.135 21.1177 108.428 20.3977H110.911C110.619 22.1406 108.875 23.7086 106.189 23.7086C102.646 23.7086 100.93 21.3533 100.93 18.3722C100.93 15.3237 102.807 13.0358 106.127 13.0358C108.861 13.0358 111.002 15.0209 111.002 17.6117C111.002 17.9617 111.002 18.4395 110.891 19.0922H103.365V19.0922Z" fill="white"/>
<path d="M84.0161 17.3291H89.2543C89.2543 15.7813 88.1941 14.8258 86.7015 14.8258C85.1879 14.819 84.0161 15.6737 84.0161 17.3291ZM84.0161 19.0922C84.1277 20.5525 84.7834 21.7301 86.841 21.7301C88.2429 21.7301 88.787 21.1177 89.0799 20.3977H91.563C91.27 22.1406 89.5263 23.7086 86.841 23.7086C83.2978 23.7086 81.5819 21.3533 81.5819 18.3722C81.5819 15.3237 83.4582 13.0358 86.7782 13.0358C89.5123 13.0358 91.6536 15.0209 91.6536 17.6117C91.6536 17.9617 91.6536 18.4395 91.542 19.0922H84.0161V19.0922Z" fill="white"/>
<path d="M66.1347 18.3722C66.1347 16.6292 64.9118 15.1488 63.011 15.1488C61.1592 15.1488 59.9363 16.6292 59.9363 18.3722C59.9363 20.1151 61.1592 21.5955 63.011 21.5955C64.9118 21.5955 66.1347 20.1151 66.1347 18.3722ZM57.4625 18.3722C57.4625 15.4987 59.6568 13.0358 63.004 13.0358C66.4002 13.0358 68.5944 15.4987 68.5944 18.3722C68.5944 21.2523 66.4002 23.7086 63.004 23.7086C59.6637 23.7086 57.4625 21.2523 57.4625 18.3722Z" fill="white"/>
<path d="M53.9635 16.9994C53.8333 15.889 53.1619 15.1488 51.5244 15.1488C49.6608 15.1488 48.7495 16.6494 48.7495 18.3722C48.7495 20.1151 49.5923 21.5955 51.6751 21.5955C53.0934 21.5955 53.6689 20.9832 53.9841 19.9603H56.4027C56.0669 22.0733 54.4911 23.7086 51.497 23.7086C48.126 23.7086 46.3309 21.1379 46.3309 18.3722C46.3309 15.6266 48.126 13.0358 51.4764 13.0358C54.8474 13.0358 56.2245 15.0411 56.3821 16.9994H53.9635V16.9994Z" fill="white"/>
<path d="M130.35 23.5788C129.974 23.647 129.262 23.7083 128.557 23.7083C127.38 23.7083 125.211 23.5516 125.211 20.0891V15.2976H123.459V13.2869H125.211V10.1721H127.627V13.2869H129.994V15.2976H127.627V19.5371C127.627 21.3228 128.181 21.5477 129.132 21.5477C129.509 21.5477 130.104 21.5 130.35 21.4591V23.5788Z" fill="white"/>
<path d="M70.1849 9.13084H72.5994V14.6629C73.2423 13.5673 74.4393 12.979 75.9646 12.979C77.4489 12.979 78.4885 13.5065 79.0631 14.3586C79.5692 15.1228 79.7266 15.9817 79.7266 17.3816V23.448H77.3121V18.1729C77.3121 16.4213 76.806 15.0822 75.0755 15.0822C73.3929 15.0822 72.5994 16.4213 72.5994 18.1729V23.448H70.1849V9.13084Z" fill="white"/>
</svg>
