<svg width="158" height="40" viewBox="0 0 158 40" fill="none" xmlns="http://www.w3.org/2000/svg">
<path d="M40.095 20.0633C40.095 24.4969 36.5053 28.095 32.0633 28.095C27.6298 28.095 24.0317 24.5053 24.0317 20.0633C24.0317 15.6298 27.6214 12.0317 32.0633 12.0317V4C23.1878 4 16 11.1962 16 20.0633C16 28.9389 23.1962 36.1267 32.0633 36.1267C40.9389 36.1267 48.1267 28.9305 48.1267 20.0633H40.095V20.0633Z" fill="#201A3D"/>
<path d="M48.1267 4H40.095V12.0317H48.1267V4Z" fill="#9C43FF"/>
<path d="M121.697 18.6588C121.236 18.5515 120.993 18.5267 120.532 18.5267C118.008 18.5267 116.625 19.9474 116.625 23.0449V28.4221H113.666V15.9578H116.625V17.965C117.195 16.8169 118.855 15.8009 120.532 15.8009C120.993 15.8009 121.37 15.8587 121.697 15.9909V18.6588Z" fill="#201A3D"/>
<path d="M136.805 16.1107H139.73V17.831C140.508 16.5102 141.958 15.8009 143.806 15.8009C145.604 15.8009 146.863 16.4368 147.559 17.4641C148.172 18.3855 148.362 19.4209 148.362 21.1086V28.4221H145.438V22.0626C145.438 19.9509 144.825 18.3365 142.729 18.3365C140.691 18.3365 139.721 19.9509 139.721 22.0626V28.4221H136.797V16.1107H136.805Z" fill="#201A3D"/>
<path d="M125.29 21.0049H131.64C131.64 19.1289 130.355 17.9706 128.545 17.9706C126.711 17.9625 125.29 18.9984 125.29 21.0049ZM125.29 23.142C125.426 24.9121 126.22 26.3395 128.714 26.3395C130.414 26.3395 131.073 25.5972 131.428 24.7245H134.438C134.083 26.8371 131.969 28.7376 128.714 28.7376C124.42 28.7376 122.34 25.8827 122.34 22.2693C122.34 18.5742 124.614 15.8009 128.638 15.8009C131.952 15.8009 134.548 18.2071 134.548 21.3475C134.548 21.7717 134.548 22.3508 134.413 23.142H125.29V23.142Z" fill="#201A3D"/>
<path d="M101.838 21.0049H108.187C108.187 19.1289 106.902 17.9706 105.093 17.9706C103.258 17.9625 101.838 18.9984 101.838 21.0049ZM101.838 23.142C101.973 24.9121 102.768 26.3395 105.262 26.3395C106.961 26.3395 107.62 25.5972 107.976 24.7245H110.985C110.63 26.8371 108.517 28.7376 105.262 28.7376C100.967 28.7376 98.8871 25.8827 98.8871 22.2693C98.8871 18.5742 101.161 15.8009 105.186 15.8009C108.5 15.8009 111.095 18.2071 111.095 21.3475C111.095 21.7717 111.095 22.3508 110.96 23.142H101.838V23.142Z" fill="#201A3D"/>
<path d="M80.1633 22.2693C80.1633 20.1566 78.681 18.3621 76.377 18.3621C74.1324 18.3621 72.6501 20.1566 72.6501 22.2693C72.6501 24.3819 74.1324 26.1764 76.377 26.1764C78.681 26.1764 80.1633 24.3819 80.1633 22.2693ZM69.6516 22.2693C69.6516 18.7863 72.3113 15.8009 76.3686 15.8009C80.4851 15.8009 83.1448 18.7863 83.1448 22.2693C83.1448 25.7604 80.4851 28.7376 76.3686 28.7376C72.3198 28.7376 69.6516 25.7604 69.6516 22.2693Z" fill="#201A3D"/>
<path d="M65.4102 20.6053C65.2525 19.2594 64.4386 18.3621 62.4537 18.3621C60.1948 18.3621 59.0903 20.1811 59.0903 22.2693C59.0903 24.3819 60.1118 26.1764 62.6364 26.1764C64.3555 26.1764 65.0531 25.4341 65.4352 24.1943H68.3668C67.9598 26.7555 66.0497 28.7376 62.4205 28.7376C58.3345 28.7376 56.1586 25.6217 56.1586 22.2693C56.1586 18.9413 58.3345 15.8009 62.3956 15.8009C66.4816 15.8009 68.1509 18.2316 68.3419 20.6053H65.4102V20.6053Z" fill="#201A3D"/>
<path d="M158 28.5805C157.544 28.6631 156.681 28.7374 155.827 28.7374C154.4 28.7374 151.771 28.5474 151.771 24.3505V18.5426H149.647V16.1054H151.771V12.3299H154.699V16.1054H157.569V18.5426H154.699V23.6813C154.699 25.8459 155.371 26.1185 156.524 26.1185C156.98 26.1185 157.702 26.0607 158 26.0111V28.5805Z" fill="#201A3D"/>
<path d="M85.0726 11.0677H87.9992V17.7733C88.7786 16.4453 90.2295 15.7321 92.0783 15.7321C93.8774 15.7321 95.1376 16.3715 95.834 17.4044C96.4475 18.3307 96.6382 19.3718 96.6382 21.0687V28.4219H93.7116V22.0278C93.7116 19.9047 93.0981 18.2816 91.0005 18.2816C88.961 18.2816 87.9992 19.9047 87.9992 22.0278V28.4219H85.0726V11.0677Z" fill="#201A3D"/>
</svg>
