<svg width="188" height="188" viewBox="0 0 188 188" fill="none" xmlns="http://www.w3.org/2000/svg">
<g opacity="0.3">
<path d="M60.2024 94.0864C58.7605 121.895 35.8385 144.043 7.59626 144.043C7.19848 144.043 6.8007 143.994 6.45264 143.994V182.976C6.85042 182.976 7.24821 183.026 7.59626 183.026C57.3682 183.026 97.7924 143.448 99.2344 94.0864H60.2024Z" fill="#F9F9F9"/>
<path fill-rule="evenodd" clip-rule="evenodd" d="M94.1652 42C65.923 42 43.4739 63.8614 42.032 91.6705H3C4.44194 42.3093 44.8933 3 94.6652 3H95.6652V42H94.1652ZM95.6701 42C123.593 43.436 145.665 65.8737 145.665 94V95C144.223 122.809 121.371 145.287 93.1295 145.287C92.9242 145.287 92.7189 145.273 92.5204 145.261C92.3346 145.249 92.1541 145.237 91.9859 145.237L91.9858 184.219C92.1914 184.219 92.3969 184.233 92.5956 184.246C92.7814 184.258 92.9612 184.269 93.1295 184.269C142.901 184.269 183.223 144.361 184.665 95V94C184.665 44.4323 145.234 4.43603 95.6701 3V42Z" fill="#DCDCDC"/>
</g>
<mask id="mask0_219_47" style="mask-type:luminance" maskUnits="userSpaceOnUse" x="44" y="44" width="100" height="100">
<path d="M144 44H44V144H144V44Z" fill="white"/>
</mask>
<g mask="url(#mask0_219_47)">
<path d="M75.441 94.3167C74.6531 109.349 62.1274 121.321 46.6945 121.321C46.4771 121.321 46.2598 121.294 46.0696 121.294V142.365C46.2869 142.365 46.5043 142.392 46.6945 142.392C73.8923 142.392 95.982 120.998 96.77 94.3167H75.441Z" fill="#292345"/>
<path fill-rule="evenodd" clip-rule="evenodd" d="M93.9999 66C78.567 66 66.2997 77.979 65.5118 93.011H44.1829C44.9708 66.3292 66.8021 45 93.9999 45H94.9999C122.084 45.7762 144 67.2066 144 94V95C143.212 121.682 120.632 143.065 93.434 143.065C93.3421 143.065 93.2438 143.058 93.1423 143.052C93.0337 143.045 92.9214 143.038 92.8091 143.038V121.966C92.901 121.966 92.9992 121.973 93.1007 121.979C93.2093 121.986 93.3217 121.993 93.434 121.993C108.867 121.993 121.212 110.032 122 95V94C122 78.7966 110.259 66.7762 94.9999 66H93.9999Z" fill="#5F00E4"/>
</g>
</svg>
