<svg width="188" height="188" viewBox="0 0 188 188" fill="none" xmlns="http://www.w3.org/2000/svg">
<path opacity="0.3" fill-rule="evenodd" clip-rule="evenodd" d="M147 95.7253C147 68.016 124.911 45.6625 97.5752 44.2478V5.95239C146.096 7.36713 185 46.8926 185 95.7253V97.2253C183.584 145.716 143.801 184.45 94.9389 184.45C94.7737 184.45 94.5972 184.439 94.4147 184.427C94.2197 184.415 94.0179 184.402 93.8162 184.402V146.106C93.9813 146.106 94.1579 146.118 94.3403 146.129C94.5353 146.142 94.7371 146.155 94.9389 146.155C122.665 146.155 145.584 124.544 147 97.2253V95.7253Z" fill="#DCDCDC"/>
<path opacity="0.3" fill-rule="evenodd" clip-rule="evenodd" d="M57 93.7253C57 66.016 35.7772 43.7101 8.44165 42.2954V4C56.9622 5.41473 96 44.8926 96 93.7253V95.2253C94.5844 143.716 53.985 182.5 5.12271 182.5C4.95756 182.5 4.78102 182.488 4.59858 182.477C4.40354 182.464 4.20177 182.451 4 182.451V144.156C4.16515 144.156 4.34169 144.167 4.52413 144.179C4.71917 144.191 4.92094 144.204 5.12271 144.204C32.8488 144.204 55.5844 122.544 57 95.2253V93.7253Z" fill="#DCDCDC"/>
<path fill-rule="evenodd" clip-rule="evenodd" d="M123 95.2254C123 79.7888 110.627 67.2102 95.4453 66.422V45.0879C122.393 45.8761 144 68.0211 144 95.2254V96.2254C143.214 123.239 121.118 144 93.981 144C93.8892 144 93.7912 143.993 93.6899 143.987C93.5815 143.98 93.4695 143.972 93.3574 143.972V122.638C93.4491 122.638 93.5472 122.645 93.6485 122.651C93.7568 122.658 93.8689 122.666 93.981 122.666C109.38 122.666 122.214 111.444 123 96.2254V95.2254Z" fill="#6700F6"/>
<path fill-rule="evenodd" clip-rule="evenodd" d="M73 93.2253C73 77.7887 61.1212 66.1222 45.9395 65.334V44C72.8871 44.7881 95 66.021 95 93.2253V94.2253C94.2138 121.239 71.7609 142.913 44.6235 142.913C44.5318 142.913 44.4338 142.907 44.3324 142.901C44.2241 142.894 44.1121 142.886 44 142.886V121.552C44.0917 121.552 44.1898 121.559 44.2911 121.565C44.3994 121.572 44.5115 121.579 44.6235 121.579C60.0222 121.579 72.2138 109.444 73 94.2253V93.2253Z" fill="#201B3C"/>
</svg>
