<svg width="188" height="188" viewBox="0 0 188 188" fill="none" xmlns="http://www.w3.org/2000/svg">
<g opacity="0.3">
<path fill-rule="evenodd" clip-rule="evenodd" d="M95 41.8012C67.3577 41.8012 45.2363 64.4237 43.825 91.8323V92.9441C43.825 120.666 65.4444 142.672 92.775 144.087H93.8875C121.53 144.087 144.763 122.576 146.175 95.1677V94.0559C146.175 66.3347 123.443 43.2166 96.1125 41.8012H95ZM96.1125 4H95C46.2854 4 7.41131 43.1821 6 91.8323L6 92.9441C6 141.798 44.2633 181.585 92.775 183H94.4437C143.158 183 182.588 143.818 184 95.1677V93.9475C184 45.0937 144.624 5.41535 96.1125 4Z" fill="#DCDCDC"/>
</g>
<mask id="mask0_219_57" style="mask-type:luminance" maskUnits="userSpaceOnUse" x="44" y="44" width="100" height="100">
<path d="M144 44H44V144H144V44Z" fill="white"/>
</mask>
<g mask="url(#mask0_219_57)">
<path fill-rule="evenodd" clip-rule="evenodd" d="M96 65C111.259 65.7762 123 77.7966 123 93V94C122.212 109.032 109.433 121 93.9999 121H93C77.7411 120.224 66 108.203 66 93V92C66.7879 76.968 79.5671 65 95 65H96ZM96 44H95C67.8022 44 45.788 65.3183 45 92V93C45 119.793 65.9155 141.224 92.9999 142H93.9999C121.198 142 143.212 120.682 144 94V93C144 66.2066 123.084 44.7762 96 44Z" fill="#6700F6"/>
<path d="M96 65C111.259 65.7762 123 77.7966 123 93C123 93.2141 123 93.8126 123 94H144C144 93.7859 144 93.1874 144 93C144 66.2066 123.084 44.7762 96 44V65Z" fill="#201B3C"/>
</g>
</svg>
