<svg width="304" height="74" viewBox="0 0 304 74" fill="none" xmlns="http://www.w3.org/2000/svg">
<path d="M63.0275 41.525C61.3242 41.525 59.8133 41.0933 58.495 40.23C57.1883 39.355 56.1792 38.1592 55.4675 36.6425C54.7558 35.1258 54.4 33.4283 54.4 31.55C54.4 29.6367 54.7617 27.9275 55.485 26.4225C56.2083 24.9058 57.235 23.7217 58.565 22.87C59.895 22.0067 61.435 21.575 63.185 21.575C64.935 21.575 66.4283 22.0067 67.665 22.87C68.9017 23.7217 69.835 24.9 70.465 26.405C71.1067 27.91 71.4275 29.625 71.4275 31.55C71.4275 33.4633 71.1067 35.1725 70.465 36.6775C69.8233 38.1825 68.8667 39.3667 67.595 40.23C66.335 41.0933 64.8125 41.525 63.0275 41.525ZM63.675 37.745C64.7717 37.745 65.67 37.4942 66.37 36.9925C67.07 36.4792 67.5833 35.7617 67.91 34.84C68.2483 33.9067 68.4175 32.81 68.4175 31.55C68.4175 30.29 68.2542 29.1992 67.9275 28.2775C67.6008 27.3558 67.0933 26.6383 66.405 26.125C65.7283 25.6117 64.865 25.355 63.815 25.355C62.7183 25.355 61.7967 25.6292 61.05 26.1775C60.315 26.7142 59.7667 27.4492 59.405 28.3825C59.0433 29.3158 58.8625 30.3717 58.8625 31.55C58.8625 32.74 59.0375 33.8017 59.3875 34.735C59.7375 35.6683 60.2742 36.4033 60.9975 36.94C61.7208 37.4767 62.6133 37.745 63.675 37.745ZM68.4175 27.735H67.8925V15.8H72.145V41H68.4175V27.735ZM77.4016 15.3625H81.6191V19.23H77.4016V15.3625ZM77.4016 22.1H81.6191V41H77.4016V22.1ZM94.8061 49.925C93.2195 49.925 91.7553 49.5575 90.4136 48.8225C89.072 48.0992 88.0336 47.0958 87.2986 45.8125L91.1836 43.8875C91.522 44.5525 92.0178 45.0542 92.6711 45.3925C93.3361 45.7425 94.0536 45.9175 94.8236 45.9175C95.722 45.9175 96.5095 45.76 97.1861 45.445C97.8628 45.1417 98.3878 44.6867 98.7611 44.08C99.1461 43.4733 99.327 42.7267 99.3036 41.84V36.4675H99.8286V22.1H103.521V41.91C103.521 42.9483 103.434 43.835 103.259 44.57C102.839 46.3433 101.876 47.6792 100.371 48.5775C98.8778 49.4758 97.0228 49.925 94.8061 49.925ZM94.4386 41.525C92.7353 41.525 91.2245 41.0933 89.9061 40.23C88.5995 39.355 87.5903 38.1592 86.8786 36.6425C86.167 35.1258 85.8111 33.4283 85.8111 31.55C85.8111 29.6367 86.1728 27.9275 86.8961 26.4225C87.6195 24.9058 88.6461 23.7217 89.9761 22.87C91.3061 22.0067 92.8461 21.575 94.5961 21.575C96.3461 21.575 97.8395 22.0067 99.0761 22.87C100.313 23.7217 101.246 24.9 101.876 26.405C102.518 27.91 102.839 29.625 102.839 31.55C102.839 33.4633 102.518 35.1725 101.876 36.6775C101.234 38.1825 100.278 39.3667 99.0061 40.23C97.7461 41.0933 96.2236 41.525 94.4386 41.525ZM95.0861 37.745C96.1828 37.745 97.0811 37.4942 97.7811 36.9925C98.4811 36.4792 98.9945 35.7617 99.3211 34.84C99.6595 33.9067 99.8286 32.81 99.8286 31.55C99.8286 30.29 99.6653 29.1992 99.3386 28.2775C99.012 27.3558 98.5045 26.6383 97.8161 26.125C97.1395 25.6117 96.2761 25.355 95.2261 25.355C94.1295 25.355 93.2078 25.6292 92.4611 26.1775C91.7261 26.7142 91.1778 27.4492 90.8161 28.3825C90.4545 29.3158 90.2736 30.3717 90.2736 31.55C90.2736 32.74 90.4486 33.8017 90.7986 34.735C91.1486 35.6683 91.6853 36.4033 92.4086 36.94C93.132 37.4767 94.0245 37.745 95.0861 37.745ZM108.779 15.3625H112.996V19.23H108.779V15.3625ZM108.779 22.1H112.996V41H108.779V22.1ZM129.316 41C127.251 41.3967 125.401 41.4258 123.768 41.0875C122.135 40.7492 120.974 39.9442 120.286 38.6725C119.947 38.0308 119.737 37.3833 119.656 36.73C119.574 36.065 119.545 35.19 119.568 34.105V33.2825V16.85H123.768V33.0375V33.58C123.756 34.3383 123.768 34.9333 123.803 35.365C123.85 35.785 123.966 36.1408 124.153 36.4325C124.55 37.0742 125.168 37.4592 126.008 37.5875C126.86 37.7042 127.962 37.6633 129.316 37.465V41ZM116.138 22.1H129.316V25.4075H116.138V22.1ZM138.699 41.525C137.381 41.525 136.243 41.2742 135.286 40.7725C134.33 40.2592 133.601 39.5708 133.099 38.7075C132.609 37.8325 132.364 36.87 132.364 35.82C132.364 34.42 132.708 33.2533 133.396 32.32C134.096 31.3867 135.187 30.6692 136.669 30.1675C137.521 29.8758 138.53 29.6308 139.696 29.4325C140.875 29.2225 142.543 28.9658 144.701 28.6625C145.285 28.5692 145.856 28.4817 146.416 28.4L144.911 29.2575C144.911 28.3708 144.783 27.6475 144.526 27.0875C144.27 26.5275 143.856 26.1133 143.284 25.845C142.712 25.5767 141.96 25.4425 141.026 25.4425C140.081 25.4425 139.23 25.6583 138.471 26.09C137.713 26.51 137.188 27.175 136.896 28.085L133.046 26.8775C133.525 25.2208 134.435 23.9258 135.776 22.9925C137.118 22.0475 138.868 21.575 141.026 21.575C142.788 21.575 144.293 21.8608 145.541 22.4325C146.79 23.0042 147.711 23.8908 148.306 25.0925C148.621 25.6992 148.82 26.3292 148.901 26.9825C148.983 27.6242 149.024 28.4292 149.024 29.3975V41H145.331V36.905L145.944 37.57C145.361 38.4917 144.725 39.2442 144.036 39.8275C143.36 40.3992 142.584 40.825 141.709 41.105C140.834 41.385 139.831 41.525 138.699 41.525ZM139.539 38.165C140.437 38.165 141.225 38.0075 141.901 37.6925C142.59 37.3658 143.138 36.9633 143.546 36.485C143.966 36.0067 144.258 35.5225 144.421 35.0325C144.596 34.6125 144.707 34.1342 144.754 33.5975C144.812 33.0608 144.841 32.4775 144.841 31.8475V31.4975L146.136 31.8825L144.614 32.1275C143.039 32.3725 141.826 32.5767 140.974 32.74C140.122 32.9033 139.393 33.0842 138.786 33.2825C138.028 33.5625 137.456 33.9008 137.071 34.2975C136.686 34.6825 136.494 35.1725 136.494 35.7675C136.494 36.2342 136.611 36.6483 136.844 37.01C137.077 37.3717 137.421 37.6575 137.876 37.8675C138.331 38.0658 138.886 38.165 139.539 38.165ZM153.93 15.8H158.147V41H153.93V15.8ZM179.479 41.525C177.682 41.525 176.154 41.0933 174.894 40.23C173.634 39.3667 172.683 38.1825 172.041 36.6775C171.4 35.1725 171.079 33.4633 171.079 31.55C171.079 29.625 171.394 27.91 172.024 26.405C172.665 24.9 173.605 23.7217 174.841 22.87C176.078 22.0067 177.571 21.575 179.321 21.575C181.071 21.575 182.611 22.0067 183.941 22.87C185.271 23.7217 186.298 24.9058 187.021 26.4225C187.745 27.9275 188.106 29.6367 188.106 31.55C188.106 33.4283 187.75 35.1258 187.039 36.6425C186.327 38.1592 185.312 39.355 183.994 40.23C182.687 41.0933 181.182 41.525 179.479 41.525ZM170.361 15.8H174.614V27.735H174.089V41H170.361V15.8ZM178.831 37.745C179.893 37.745 180.785 37.4767 181.509 36.94C182.232 36.4033 182.769 35.6683 183.119 34.735C183.469 33.8017 183.644 32.74 183.644 31.55C183.644 30.3717 183.463 29.3158 183.101 28.3825C182.74 27.4492 182.185 26.7142 181.439 26.1775C180.704 25.6292 179.788 25.355 178.691 25.355C177.641 25.355 176.772 25.6117 176.084 26.125C175.407 26.6383 174.905 27.3558 174.579 28.2775C174.252 29.1992 174.089 30.29 174.089 31.55C174.089 32.81 174.252 33.9067 174.579 34.84C174.917 35.7617 175.436 36.4792 176.136 36.9925C176.836 37.4942 177.735 37.745 178.831 37.745ZM197.249 41.525C195.93 41.525 194.793 41.2742 193.836 40.7725C192.88 40.2592 192.15 39.5708 191.649 38.7075C191.159 37.8325 190.914 36.87 190.914 35.82C190.914 34.42 191.258 33.2533 191.946 32.32C192.646 31.3867 193.737 30.6692 195.219 30.1675C196.07 29.8758 197.08 29.6308 198.246 29.4325C199.425 29.2225 201.093 28.9658 203.251 28.6625C203.835 28.5692 204.406 28.4817 204.966 28.4L203.461 29.2575C203.461 28.3708 203.333 27.6475 203.076 27.0875C202.82 26.5275 202.405 26.1133 201.834 25.845C201.262 25.5767 200.51 25.4425 199.576 25.4425C198.631 25.4425 197.78 25.6583 197.021 26.09C196.263 26.51 195.738 27.175 195.446 28.085L191.596 26.8775C192.075 25.2208 192.985 23.9258 194.326 22.9925C195.668 22.0475 197.418 21.575 199.576 21.575C201.338 21.575 202.843 21.8608 204.091 22.4325C205.34 23.0042 206.261 23.8908 206.856 25.0925C207.171 25.6992 207.37 26.3292 207.451 26.9825C207.533 27.6242 207.574 28.4292 207.574 29.3975V41H203.881V36.905L204.494 37.57C203.91 38.4917 203.275 39.2442 202.586 39.8275C201.91 40.3992 201.134 40.825 200.259 41.105C199.384 41.385 198.38 41.525 197.249 41.525ZM198.089 38.165C198.987 38.165 199.775 38.0075 200.451 37.6925C201.14 37.3658 201.688 36.9633 202.096 36.485C202.516 36.0067 202.808 35.5225 202.971 35.0325C203.146 34.6125 203.257 34.1342 203.304 33.5975C203.362 33.0608 203.391 32.4775 203.391 31.8475V31.4975L204.686 31.8825L203.164 32.1275C201.589 32.3725 200.375 32.5767 199.524 32.74C198.672 32.9033 197.943 33.0842 197.336 33.2825C196.578 33.5625 196.006 33.9008 195.621 34.2975C195.236 34.6825 195.044 35.1725 195.044 35.7675C195.044 36.2342 195.16 36.6483 195.394 37.01C195.627 37.3717 195.971 37.6575 196.426 37.8675C196.881 38.0658 197.435 38.165 198.089 38.165ZM225.202 31.9C225.202 30.8033 225.103 29.8117 224.905 28.925C224.706 28.0267 224.281 27.2392 223.627 26.5625C222.974 25.8742 222.029 25.53 220.792 25.53C219.976 25.53 219.241 25.705 218.587 26.055C217.946 26.3933 217.415 26.9883 216.995 27.84C216.575 28.6917 216.365 29.8408 216.365 31.2875L213.862 30.22C213.862 28.5867 214.177 27.1167 214.807 25.81C215.437 24.5033 216.365 23.4708 217.59 22.7125C218.826 21.9425 220.308 21.5575 222.035 21.5575C224.146 21.5575 225.751 22.0942 226.847 23.1675C227.956 24.2292 228.667 25.3958 228.982 26.6675C229.309 27.9392 229.472 29.1992 229.472 30.4475V41H225.202V31.9ZM212.095 22.1H215.857V27.9625H216.365V41H212.095V22.1ZM234.039 15.8H238.309V31.2L245.221 22.1H250.489L243.156 31.55L251.119 41H245.536L238.309 31.9V41H234.004L234.039 15.8ZM253.222 15.3625H257.439V19.23H253.222V15.3625ZM253.222 22.1H257.439V41H253.222V22.1ZM275.754 31.9C275.754 30.8033 275.655 29.8117 275.456 28.925C275.258 28.0267 274.832 27.2392 274.179 26.5625C273.526 25.8742 272.581 25.53 271.344 25.53C270.527 25.53 269.792 25.705 269.139 26.055C268.497 26.3933 267.966 26.9883 267.546 27.84C267.126 28.6917 266.916 29.8408 266.916 31.2875L264.414 30.22C264.414 28.5867 264.729 27.1167 265.359 25.81C265.989 24.5033 266.916 23.4708 268.141 22.7125C269.378 21.9425 270.86 21.5575 272.586 21.5575C274.698 21.5575 276.302 22.0942 277.399 23.1675C278.507 24.2292 279.219 25.3958 279.534 26.6675C279.861 27.9392 280.024 29.1992 280.024 30.4475V41H275.754V31.9ZM262.646 22.1H266.409V27.9625H266.916V41H262.646V22.1ZM292.536 49.925C290.949 49.925 289.485 49.5575 288.143 48.8225C286.801 48.0992 285.763 47.0958 285.028 45.8125L288.913 43.8875C289.251 44.5525 289.747 45.0542 290.401 45.3925C291.066 45.7425 291.783 45.9175 292.553 45.9175C293.451 45.9175 294.239 45.76 294.916 45.445C295.592 45.1417 296.117 44.6867 296.491 44.08C296.876 43.4733 297.056 42.7267 297.033 41.84V36.4675H297.558V22.1H301.251V41.91C301.251 42.9483 301.163 43.835 300.988 44.57C300.568 46.3433 299.606 47.6792 298.101 48.5775C296.607 49.4758 294.752 49.925 292.536 49.925ZM292.168 41.525C290.465 41.525 288.954 41.0933 287.636 40.23C286.329 39.355 285.32 38.1592 284.608 36.6425C283.896 35.1258 283.541 33.4283 283.541 31.55C283.541 29.6367 283.902 27.9275 284.626 26.4225C285.349 24.9058 286.376 23.7217 287.706 22.87C289.036 22.0067 290.576 21.575 292.326 21.575C294.076 21.575 295.569 22.0067 296.806 22.87C298.042 23.7217 298.976 24.9 299.606 26.405C300.247 27.91 300.568 29.625 300.568 31.55C300.568 33.4633 300.247 35.1725 299.606 36.6775C298.964 38.1825 298.007 39.3667 296.736 40.23C295.476 41.0933 293.953 41.525 292.168 41.525ZM292.816 37.745C293.912 37.745 294.811 37.4942 295.511 36.9925C296.211 36.4792 296.724 35.7617 297.051 34.84C297.389 33.9067 297.558 32.81 297.558 31.55C297.558 30.29 297.395 29.1992 297.068 28.2775C296.741 27.3558 296.234 26.6383 295.546 26.125C294.869 25.6117 294.006 25.355 292.956 25.355C291.859 25.355 290.937 25.6292 290.191 26.1775C289.456 26.7142 288.907 27.4492 288.546 28.3825C288.184 29.3158 288.003 30.3717 288.003 31.55C288.003 32.74 288.178 33.8017 288.528 34.735C288.878 35.6683 289.415 36.4033 290.138 36.94C290.861 37.4767 291.754 37.745 292.816 37.745Z" fill="black"/>
<path d="M172.12 57.48H176.568C177.197 57.48 177.755 57.6133 178.24 57.88C178.731 58.1413 179.109 58.4987 179.376 58.952C179.643 59.4053 179.776 59.904 179.776 60.448C179.776 60.8533 179.701 61.2373 179.552 61.6C179.403 61.9573 179.189 62.2667 178.912 62.528C178.64 62.784 178.32 62.976 177.952 63.104L177.936 62.712C178.432 62.856 178.859 63.072 179.216 63.36C179.579 63.648 179.856 63.9973 180.048 64.408C180.24 64.8133 180.336 65.2667 180.336 65.768C180.336 66.4293 180.195 67.0027 179.912 67.488C179.629 67.9733 179.232 68.3467 178.72 68.608C178.208 68.8693 177.613 69 176.936 69H172.12V57.48ZM176.648 67.872C177.117 67.872 177.539 67.7893 177.912 67.624C178.285 67.4533 178.579 67.2107 178.792 66.896C179.011 66.5813 179.12 66.2107 179.12 65.784C179.12 65.3627 179.021 64.9787 178.824 64.632C178.627 64.2853 178.355 64.0107 178.008 63.808C177.667 63.6053 177.285 63.504 176.864 63.504H173.304V67.872H176.648ZM176.56 62.392C176.928 62.392 177.264 62.3093 177.568 62.144C177.872 61.9733 178.112 61.7387 178.288 61.44C178.469 61.1413 178.56 60.8053 178.56 60.432C178.56 60.0747 178.475 59.7573 178.304 59.48C178.133 59.2027 177.896 58.9867 177.592 58.832C177.288 58.672 176.944 58.592 176.56 58.592H173.304V62.392H176.56ZM184.837 68.304L184.861 69.648L181.076 60.36H182.325L185.429 68.128H184.917L187.781 60.36H188.981L184.341 72.84H183.164L184.837 68.304ZM198.237 69.24C197.112 69.24 196.152 68.9893 195.357 68.488C194.562 67.9867 193.96 67.2853 193.549 66.384C193.138 65.4773 192.933 64.4293 192.933 63.24C192.933 62.0507 193.138 61.0053 193.549 60.104C193.96 59.1973 194.562 58.4933 195.357 57.992C196.152 57.4907 197.112 57.24 198.237 57.24C199.117 57.24 199.896 57.3947 200.573 57.704C201.25 58.008 201.813 58.4453 202.261 59.016C202.714 59.5813 203.048 60.2507 203.261 61.024L202.061 61.336C201.81 60.4027 201.362 59.6747 200.717 59.152C200.072 58.6293 199.245 58.368 198.237 58.368C197.357 58.368 196.613 58.5733 196.005 58.984C195.402 59.3893 194.949 59.9573 194.645 60.688C194.341 61.4133 194.184 62.264 194.173 63.24C194.168 64.2107 194.317 65.0613 194.621 65.792C194.93 66.5227 195.389 67.0933 195.997 67.504C196.61 67.9093 197.357 68.112 198.237 68.112C199.245 68.112 200.072 67.8507 200.717 67.328C201.362 66.8053 201.81 66.0773 202.061 65.144L203.261 65.456C203.048 66.2293 202.714 66.9013 202.261 67.472C201.813 68.0373 201.25 68.4747 200.573 68.784C199.896 69.088 199.117 69.24 198.237 69.24ZM208.634 69.24C207.792 69.24 207.061 69.048 206.442 68.664C205.829 68.28 205.36 67.744 205.034 67.056C204.709 66.3627 204.546 65.568 204.546 64.672C204.546 63.7707 204.712 62.976 205.042 62.288C205.373 61.6 205.848 61.0667 206.466 60.688C207.085 60.3093 207.808 60.12 208.634 60.12C209.482 60.12 210.213 60.312 210.826 60.696C211.445 61.08 211.917 61.616 212.242 62.304C212.568 62.9867 212.73 63.776 212.73 64.672C212.73 65.5787 212.565 66.376 212.234 67.064C211.909 67.752 211.437 68.288 210.818 68.672C210.205 69.0507 209.477 69.24 208.634 69.24ZM208.634 68.112C209.258 68.112 209.784 67.9707 210.21 67.688C210.637 67.4 210.954 66.9973 211.162 66.48C211.376 65.9627 211.482 65.36 211.482 64.672C211.482 63.6053 211.24 62.768 210.754 62.16C210.269 61.552 209.562 61.248 208.634 61.248C208.005 61.248 207.477 61.392 207.05 61.68C206.629 61.9627 206.314 62.36 206.106 62.872C205.898 63.384 205.794 63.984 205.794 64.672C205.794 65.3707 205.901 65.9787 206.114 66.496C206.333 67.0133 206.653 67.4133 207.074 67.696C207.501 67.9733 208.021 68.112 208.634 68.112ZM220.735 64.592C220.735 63.904 220.65 63.32 220.479 62.84C220.314 62.3547 220.044 61.9707 219.671 61.688C219.298 61.4053 218.818 61.264 218.231 61.264C217.676 61.264 217.21 61.3893 216.831 61.64C216.452 61.8853 216.164 62.2427 215.967 62.712C215.77 63.176 215.671 63.736 215.671 64.392L214.839 64.208C214.839 63.344 214.991 62.608 215.295 62C215.599 61.3867 216.023 60.9253 216.567 60.616C217.111 60.3013 217.74 60.144 218.455 60.144C219.276 60.144 219.946 60.3413 220.463 60.736C220.98 61.1307 221.351 61.632 221.575 62.24C221.804 62.8427 221.919 63.512 221.919 64.248V69H220.735V64.592ZM214.487 57.48H215.551V63.984H215.671V69H214.487V57.48ZM227.651 69.24C226.819 69.24 226.091 69.056 225.467 68.688C224.843 68.3147 224.36 67.7867 224.019 67.104C223.683 66.4213 223.515 65.6267 223.515 64.72C223.515 63.7813 223.683 62.968 224.019 62.28C224.355 61.5867 224.83 61.0533 225.443 60.68C226.056 60.3067 226.776 60.12 227.603 60.12C228.451 60.12 229.176 60.3147 229.779 60.704C230.387 61.0933 230.846 61.656 231.155 62.392C231.464 63.128 231.606 64 231.579 65.008H230.379V64.592C230.363 63.8453 230.251 63.2213 230.043 62.72C229.835 62.2187 229.528 61.84 229.123 61.584C228.718 61.328 228.222 61.2 227.635 61.2C227.022 61.2 226.499 61.336 226.067 61.608C225.64 61.8747 225.315 62.2693 225.091 62.792C224.872 63.3093 224.763 63.9387 224.763 64.68C224.763 65.4053 224.872 66.024 225.091 66.536C225.315 67.048 225.64 67.44 226.067 67.712C226.494 67.9787 227.006 68.112 227.603 68.112C228.216 68.112 228.755 67.9707 229.219 67.688C229.683 67.4053 230.048 66.992 230.315 66.448L231.411 66.872C231.187 67.3733 230.886 67.8027 230.507 68.16C230.134 68.512 229.702 68.7813 229.211 68.968C228.726 69.1493 228.206 69.24 227.651 69.24ZM224.347 64.024H230.947V65.008H224.347V64.024ZM233.354 60.36H234.41V62.44L234.202 62.168C234.298 61.9173 234.424 61.6827 234.578 61.464C234.733 61.2453 234.901 61.0667 235.082 60.928C235.301 60.736 235.557 60.5867 235.85 60.48C236.149 60.3733 236.45 60.312 236.754 60.296C237.064 60.2747 237.346 60.296 237.602 60.36V61.464C237.25 61.3787 236.89 61.3627 236.522 61.416C236.16 61.4693 235.832 61.616 235.538 61.856C235.261 62.0693 235.048 62.328 234.898 62.632C234.754 62.9307 234.656 63.24 234.602 63.56C234.554 63.8747 234.53 64.2507 234.53 64.688V69H233.354V60.36ZM242.62 69.24C241.788 69.24 241.06 69.056 240.436 68.688C239.812 68.3147 239.329 67.7867 238.988 67.104C238.652 66.4213 238.484 65.6267 238.484 64.72C238.484 63.7813 238.652 62.968 238.988 62.28C239.324 61.5867 239.798 61.0533 240.412 60.68C241.025 60.3067 241.745 60.12 242.572 60.12C243.42 60.12 244.145 60.3147 244.748 60.704C245.356 61.0933 245.814 61.656 246.124 62.392C246.433 63.128 246.574 64 246.548 65.008H245.348V64.592C245.332 63.8453 245.22 63.2213 245.012 62.72C244.804 62.2187 244.497 61.84 244.092 61.584C243.686 61.328 243.19 61.2 242.604 61.2C241.99 61.2 241.468 61.336 241.036 61.608C240.609 61.8747 240.284 62.2693 240.06 62.792C239.841 63.3093 239.732 63.9387 239.732 64.68C239.732 65.4053 239.841 66.024 240.06 66.536C240.284 67.048 240.609 67.44 241.036 67.712C241.462 67.9787 241.974 68.112 242.572 68.112C243.185 68.112 243.724 67.9707 244.188 67.688C244.652 67.4053 245.017 66.992 245.284 66.448L246.38 66.872C246.156 67.3733 245.854 67.8027 245.476 68.16C245.102 68.512 244.67 68.7813 244.18 68.968C243.694 69.1493 243.174 69.24 242.62 69.24ZM239.316 64.024H245.916V65.008H239.316V64.024ZM254.329 64.592C254.329 63.904 254.243 63.32 254.073 62.84C253.907 62.3547 253.638 61.9707 253.265 61.688C252.891 61.4053 252.411 61.264 251.825 61.264C251.27 61.264 250.803 61.3893 250.425 61.64C250.046 61.8853 249.758 62.2427 249.561 62.712C249.363 63.176 249.265 63.736 249.265 64.392L248.433 64.208C248.433 63.344 248.585 62.608 248.889 62C249.193 61.3867 249.617 60.9253 250.161 60.616C250.705 60.3013 251.334 60.144 252.049 60.144C252.87 60.144 253.539 60.3413 254.057 60.736C254.574 61.1307 254.945 61.632 255.169 62.24C255.398 62.8427 255.513 63.512 255.513 64.248V69H254.329V64.592ZM248.081 60.36H249.145V62.488H249.265V69H248.081V60.36ZM262.293 69C261.493 69.1653 260.767 69.168 260.117 69.008C259.471 68.8533 259.015 68.5067 258.749 67.968C258.626 67.7067 258.549 67.4427 258.517 67.176C258.485 66.9093 258.471 66.5493 258.477 66.096V65.872V57.96H259.645V65.824V66.08C259.639 66.4267 259.645 66.6933 259.661 66.88C259.682 67.0613 259.735 67.2267 259.821 67.376C260.007 67.7173 260.298 67.928 260.693 68.008C261.093 68.088 261.626 68.0747 262.293 67.968V69ZM256.629 60.36H262.293V61.368H256.629V60.36Z" fill="black"/>
<g clip-path="url(#clip0_1228_1011)">
<mask id="mask0_1228_1011" style="mask-type:luminance" maskUnits="userSpaceOnUse" x="0" y="0" width="42" height="41">
<path d="M41.0594 0H0V40.9999H41.0594V0Z" fill="white"/>
</mask>
<g mask="url(#mask0_1228_1011)">
<path d="M20.5297 20.5297V11.5856C14.1423 11.5856 8.94404 6.38739 8.94404 0H0C0 11.3393 9.19037 20.5297 20.5297 20.5297Z" fill="black"/>
<path d="M41.0593 20.5297V11.5856C34.672 11.5856 29.4737 6.38739 29.4737 0H20.5297C20.5297 11.3393 29.72 20.5297 41.0593 20.5297Z" fill="#6700F6"/>
<path d="M20.5297 41.0004V32.0563C14.1423 32.0563 8.94404 26.8581 8.94404 20.4707H0C0 31.81 9.19037 41.0004 20.5297 41.0004Z" fill="black"/>
<path d="M20.5297 20.4707V29.4147C26.9171 29.4147 32.1153 34.613 32.1153 41.0004H41.0593C41.0593 29.6611 31.869 20.4707 20.5297 20.4707Z" fill="black"/>
</g>
</g>
<defs>
<clipPath id="clip0_1228_1011">
<rect width="41" height="41" fill="white"/>
</clipPath>
</defs>
</svg>
