<svg width="27" height="27" viewBox="0 0 27 27" fill="none" xmlns="http://www.w3.org/2000/svg">
<path d="M22.9131 12.8619L12.9516 4.21611C12.8751 4.1502 12.7775 4.11328 12.6747 4.11328H10.3412C10.1461 4.11328 10.0564 4.35586 10.2041 4.48242L19.4379 12.498H4.00781C3.8918 12.498 3.79688 12.593 3.79688 12.709V14.291C3.79688 14.407 3.8918 14.502 4.00781 14.502H19.4353L10.2015 22.5176C10.0538 22.6468 10.1435 22.8867 10.3386 22.8867H12.7512C12.8013 22.8867 12.8514 22.8683 12.8883 22.834L22.9131 14.1381C23.0044 14.0587 23.0776 13.9607 23.1277 13.8506C23.1779 13.7405 23.2038 13.621 23.2038 13.5C23.2038 13.379 23.1779 13.2595 23.1277 13.1494C23.0776 13.0393 23.0044 12.9413 22.9131 12.8619V12.8619Z" fill="#202020"/>
</svg>
