<svg width="24" height="24" viewBox="0 0 24 24" fill="none" xmlns="http://www.w3.org/2000/svg">
<path d="M23.75 21.5455H2.25V0.272727C2.25 0.122727 2.1375 0 2 0H0.25C0.1125 0 0 0.122727 0 0.272727V23.7273C0 23.8773 0.1125 24 0.25 24H23.75C23.8875 24 24 23.8773 24 23.7273V21.8182C24 21.6682 23.8875 21.5455 23.75 21.5455ZM4.5 19.3636H21.25C21.3875 19.3636 21.5 19.2409 21.5 19.0909V4.22727C21.5 3.98182 21.2281 3.8625 21.0719 4.03295L14.5 11.2023L10.5813 6.975C10.5343 6.92425 10.4708 6.89577 10.4047 6.89577C10.3386 6.89577 10.2751 6.92425 10.2281 6.975L4.32187 13.4386C4.29893 13.4637 4.28077 13.4935 4.26844 13.5263C4.2561 13.559 4.24983 13.5941 4.25 13.6295V19.0909C4.25 19.2409 4.3625 19.3636 4.5 19.3636Z" fill="white"/>
</svg>
