<svg width="36" height="36" viewBox="0 0 36 36" fill="none" xmlns="http://www.w3.org/2000/svg">
<g clip-path="url(#clip0_212_10)">
<path d="M35.4598 17.7163L19.9348 2.19938L18.8941 1.15875C18.657 0.92321 18.3364 0.791016 18.0022 0.791016C17.668 0.791016 17.3473 0.92321 17.1102 1.15875L0.544586 17.7163C0.301631 17.9583 0.109619 18.2466 -0.0201151 18.564C-0.149849 18.8814 -0.214677 19.2217 -0.210771 19.5646C-0.1947 20.9788 0.982533 22.1079 2.39682 22.1079H4.10441V35.194H31.8999V22.1079H33.6437C34.3307 22.1079 34.9776 21.8387 35.4638 21.3525C35.7032 21.1139 35.8928 20.8302 36.0218 20.5177C36.1508 20.2053 36.2165 19.8704 36.2151 19.5324C36.2151 18.8494 35.9459 18.2025 35.4598 17.7163V17.7163ZM20.2522 32.3012H15.7522V24.1047H20.2522V32.3012ZM29.0071 19.215V32.3012H22.8236V23.1404C22.8236 22.2525 22.1044 21.5333 21.2165 21.5333H14.7879C13.8999 21.5333 13.1807 22.2525 13.1807 23.1404V32.3012H6.99726V19.215H3.14012L18.0062 4.36098L18.9343 5.28911L32.8682 19.215H29.0071Z" fill="white" fill-opacity="0.85"/>
</g>
<defs>
<clipPath id="clip0_212_10">
<rect width="36" height="36" fill="white"/>
</clipPath>
</defs>
</svg>
