<svg width="222" height="49" viewBox="0 0 222 49" fill="none" xmlns="http://www.w3.org/2000/svg">
<g clip-path="url(#clip0_391_615)">
<path d="M24.17 24.17V13.64C16.65 13.64 10.53 7.52 10.53 0H0C0 13.35 10.82 24.17 24.17 24.17Z" fill="#1C1828"/>
<path d="M48.34 24.17V13.64C40.82 13.64 34.7 7.52 34.7 0H24.17C24.17 13.35 34.99 24.17 48.34 24.17Z" fill="#6700F6"/>
<path d="M24.17 48.2701V37.7401C16.65 37.7401 10.53 31.6201 10.53 24.1001H0C0 37.4501 10.82 48.2701 24.17 48.2701Z" fill="#1C1828"/>
<path d="M24.17 24.1001V34.6301C31.69 34.6301 37.81 40.7501 37.81 48.2701H48.34C48.34 34.9201 37.52 24.1001 24.17 24.1001Z" fill="#1C1828"/>
<path d="M129.18 21.7V34.07H124.58V23.81C124.58 19.63 123.48 17.81 120.27 17.81C117.27 17.81 115.58 19.8 115.58 23.26V34.07H110.98V5.75H115.58V17.14C116.8 15.03 119.09 13.89 122 13.89C126.73 13.89 129.18 16.55 129.18 21.7Z" fill="#1C1828"/>
<path d="M150.88 25.7501H136.27C136.4 28.8801 138.42 30.5601 141.76 30.5601C144.04 30.5601 145.39 29.7901 146.15 28.2701L150.8 28.3201C150.21 31.9901 146.49 34.5701 141.76 34.5701C135.55 34.5701 131.71 30.6001 131.71 24.2201C131.71 17.8401 135.59 13.8701 141.59 13.8701C147.21 13.8701 151.01 17.6701 151.01 23.2001C151.01 24.0001 150.97 24.6401 150.88 25.7301V25.7501ZM146.49 22.2401C146.45 19.2001 144.67 17.5101 141.51 17.5101C138.35 17.5101 136.31 19.4501 136.27 22.2401H146.49Z" fill="#1C1828"/>
<path d="M153.88 14.3899H158.48V17.3599C159.39 15.2999 161.56 14.1299 163.72 14.1299C164.44 14.1299 165.03 14.1699 165.54 14.2999V18.5199C164.82 18.4399 164.44 18.4399 163.72 18.4399C160.47 18.4399 158.48 20.8899 158.48 25.3699V34.0699H153.88V14.3899Z" fill="#1C1828"/>
<path d="M185.49 25.7501H170.88C171.01 28.8801 173.03 30.5601 176.37 30.5601C178.65 30.5601 180 29.8401 180.76 28.3201H185.41C184.82 31.9901 181.1 34.5701 176.37 34.5701C170.16 34.5701 166.32 30.6001 166.32 24.2201C166.32 17.8401 170.21 13.8701 176.2 13.8701C181.82 13.8701 185.62 17.6701 185.62 23.2001C185.62 24.0001 185.58 24.6401 185.49 25.7301V25.7501ZM181.1 22.2401C181.06 19.2001 179.28 17.5101 176.12 17.5101C172.96 17.5101 170.92 19.4501 170.88 22.2401H181.1Z" fill="#1C1828"/>
<path d="M188.18 14.3899H192.78V17.1399C194 15.0299 196.29 13.8899 199.2 13.8899C203.93 13.8899 206.38 16.5499 206.38 21.6999V34.0699H201.78V23.8099C201.78 19.6299 200.68 17.8099 197.47 17.8099C194.47 17.8099 192.78 19.7999 192.78 23.2599V34.0699H188.18V14.3899Z" fill="#1C1828"/>
<path d="M215.92 8.1601V14.3901H220.44V18.2301H215.92V26.3401C215.92 29.7601 216.98 30.1801 218.79 30.1801C219.51 30.1801 220.65 30.1001 221.11 30.0101V34.0601C220.39 34.1901 219.04 34.3101 217.69 34.3101C215.45 34.3101 211.31 34.0101 211.31 27.3801V18.2101H207.97V14.3701H211.31L211.36 8.1001L215.92 8.1401V8.1601Z" fill="#1C1828"/>
<path d="M98.26 13.97C92.66 13.97 88.13 18.51 88.13 24.1C88.13 29.69 92.67 34.23 98.26 34.23C103.85 34.23 108.39 29.69 108.39 24.1C108.39 18.51 103.85 13.97 98.26 13.97ZM98.26 29.93C95.04 29.93 92.44 27.32 92.44 24.11C92.44 20.9 95.05 18.29 98.26 18.29C101.47 18.29 104.08 20.9 104.08 24.11C104.08 27.32 101.47 29.93 98.26 29.93Z" fill="#1C1828"/>
<path d="M81.0801 26.3C80.1901 28.41 78.1001 29.89 75.6601 29.89C72.4101 29.89 69.7801 27.26 69.7801 24.01C69.7801 20.76 72.4101 18.13 75.6601 18.13C78.2801 18.13 80.4901 19.84 81.2501 22.21H85.7101C84.8601 17.42 80.6901 13.78 75.6501 13.78C70.0001 13.78 65.4301 18.36 65.4301 24C65.4301 29.64 70.0101 34.22 75.6501 34.22C80.5101 34.22 84.5701 30.82 85.6101 26.28H81.0701L81.0801 26.3Z" fill="#1C1828"/>
</g>
<defs>
<clipPath id="clip0_391_615">
<rect width="222" height="49" fill="white"/>
</clipPath>
</defs>
</svg>
