<svg width="49" height="49" viewBox="0 0 49 49" fill="none" xmlns="http://www.w3.org/2000/svg">
<g clip-path="url(#clip0_413_1932)">
<path d="M24.17 24.17V13.64C16.65 13.64 10.53 7.52 10.53 0H0C0 13.35 10.82 24.17 24.17 24.17Z" fill="black"/>
<path d="M48.34 24.17V13.64C40.82 13.64 34.7 7.52 34.7 0H24.17C24.17 13.35 34.99 24.17 48.34 24.17Z" fill="black"/>
<path d="M24.17 48.2701V37.7401C16.65 37.7401 10.53 31.6201 10.53 24.1001H0C0 37.4501 10.82 48.2701 24.17 48.2701Z" fill="black"/>
<path d="M24.17 24.1001V34.6301C31.69 34.6301 37.81 40.7501 37.81 48.2701H48.34C48.34 34.9201 37.52 24.1001 24.17 24.1001Z" fill="black"/>
</g>
<defs>
<clipPath id="clip0_413_1932">
<rect width="48.34" height="48.27" fill="white"/>
</clipPath>
</defs>
</svg>
