<svg width="32" height="32" viewBox="0 0 32 32" fill="none" xmlns="http://www.w3.org/2000/svg">
<path d="M24.6619 24.6902C24.1903 23.5731 23.506 22.5585 22.6469 21.7027C21.7905 20.8445 20.776 20.1602 19.6594 19.6877C19.6494 19.6827 19.6394 19.6802 19.6294 19.6752C21.1869 18.5502 22.1994 16.7177 22.1994 14.6502C22.1994 11.2252 19.4244 8.4502 15.9994 8.4502C12.5744 8.4502 9.79943 11.2252 9.79943 14.6502C9.79943 16.7177 10.8119 18.5502 12.3694 19.6777C12.3594 19.6827 12.3494 19.6852 12.3394 19.6902C11.2194 20.1627 10.2144 20.8402 9.35193 21.7052C8.4937 22.5616 7.80944 23.5761 7.33693 24.6927C6.87273 25.7858 6.62238 26.9578 6.59943 28.1452C6.59876 28.1719 6.60344 28.1984 6.61319 28.2233C6.62294 28.2481 6.63757 28.2708 6.65621 28.2899C6.67485 28.309 6.69712 28.3241 6.72172 28.3345C6.74632 28.3449 6.77274 28.3502 6.79943 28.3502H8.29943C8.40943 28.3502 8.49693 28.2627 8.49943 28.1552C8.54943 26.2252 9.32443 24.4177 10.6944 23.0477C12.1119 21.6302 13.9944 20.8502 15.9994 20.8502C18.0044 20.8502 19.8869 21.6302 21.3044 23.0477C22.6744 24.4177 23.4494 26.2252 23.4994 28.1552C23.5019 28.2652 23.5894 28.3502 23.6994 28.3502H25.1994C25.2261 28.3502 25.2525 28.3449 25.2771 28.3345C25.3017 28.3241 25.324 28.309 25.3426 28.2899C25.3613 28.2708 25.3759 28.2481 25.3857 28.2233C25.3954 28.1984 25.4001 28.1719 25.3994 28.1452C25.3744 26.9502 25.1269 25.7877 24.6619 24.6902ZM15.9994 18.9502C14.8519 18.9502 13.7719 18.5027 12.9594 17.6902C12.1469 16.8777 11.6994 15.7977 11.6994 14.6502C11.6994 13.5027 12.1469 12.4227 12.9594 11.6102C13.7719 10.7977 14.8519 10.3502 15.9994 10.3502C17.1469 10.3502 18.2269 10.7977 19.0394 11.6102C19.8519 12.4227 20.2994 13.5027 20.2994 14.6502C20.2994 15.7977 19.8519 16.8777 19.0394 17.6902C18.2269 18.5027 17.1469 18.9502 15.9994 18.9502Z" fill="black"/>
<circle cx="16" cy="16" r="15" stroke="black" stroke-width="2"/>
</svg>
