<svg width="335" height="72" viewBox="0 0 335 72" fill="none" xmlns="http://www.w3.org/2000/svg">
<rect x="0.5" y="0.5" width="334" height="71" rx="7.5" fill="white"/>
<path d="M17.0518 25V16.2432H20.2305V15.1357H12.6426V16.2432H15.8213V25H17.0518ZM23.6416 25.1299C25.7402 25.1299 27.0391 23.6807 27.0391 21.3154C27.0391 18.9434 25.7402 17.501 23.6416 17.501C21.543 17.501 20.2441 18.9434 20.2441 21.3154C20.2441 23.6807 21.543 25.1299 23.6416 25.1299ZM23.6416 24.0703C22.2471 24.0703 21.4609 23.0586 21.4609 21.3154C21.4609 19.5654 22.2471 18.5605 23.6416 18.5605C25.0361 18.5605 25.8223 19.5654 25.8223 21.3154C25.8223 23.0586 25.0361 24.0703 23.6416 24.0703ZM29.377 15.7236V17.6309H28.1875V18.6152H29.377V23.0859C29.377 24.4941 29.9854 25.0547 31.5029 25.0547C31.7354 25.0547 31.9609 25.0273 32.1934 24.9863V23.9951C31.9746 24.0156 31.8584 24.0225 31.6465 24.0225C30.8809 24.0225 30.5527 23.6533 30.5527 22.7852V18.6152H32.1934V17.6309H30.5527V15.7236H29.377ZM36.0215 25.1299C37.0059 25.1299 37.8125 24.6992 38.291 23.9131H38.4004V25H39.5215V19.9551C39.5215 18.4238 38.5166 17.501 36.7188 17.501C35.1465 17.501 33.9844 18.2803 33.8271 19.4629H35.0166C35.1807 18.8818 35.7959 18.5469 36.6777 18.5469C37.7783 18.5469 38.3457 19.0459 38.3457 19.9551V20.625L36.2197 20.7549C34.5039 20.8574 33.5332 21.6162 33.5332 22.9355C33.5332 24.2822 34.5928 25.1299 36.0215 25.1299ZM36.2402 24.0977C35.3857 24.0977 34.75 23.6602 34.75 22.9082C34.75 22.1699 35.2422 21.7803 36.3633 21.7051L38.3457 21.5752V22.252C38.3457 23.3047 37.4502 24.0977 36.2402 24.0977ZM41.7637 25H42.9395V14.7051H41.7637V25ZM53.1729 25C55.2715 25 56.5156 23.9678 56.5156 22.2314C56.5156 20.9258 55.6611 20.0029 54.3145 19.832V19.7227C55.2646 19.5518 56.0166 18.6221 56.0166 17.5967C56.0166 16.0859 54.9092 15.1357 53.0977 15.1357H49.3242V25H53.1729ZM50.5547 16.2227H52.8379C54.0615 16.2227 54.7725 16.8037 54.7725 17.8086C54.7725 18.8545 54.0137 19.3877 52.5234 19.3877H50.5547V16.2227ZM50.5547 23.9131V20.4473H52.8721C54.4443 20.4473 55.251 21.0283 55.251 22.1699C55.251 23.3115 54.4717 23.9131 52.9883 23.9131H50.5547ZM60.4258 25.1299C61.4102 25.1299 62.2168 24.6992 62.6953 23.9131H62.8047V25H63.9258V19.9551C63.9258 18.4238 62.9209 17.501 61.123 17.501C59.5508 17.501 58.3887 18.2803 58.2314 19.4629H59.4209C59.585 18.8818 60.2002 18.5469 61.082 18.5469C62.1826 18.5469 62.75 19.0459 62.75 19.9551V20.625L60.624 20.7549C58.9082 20.8574 57.9375 21.6162 57.9375 22.9355C57.9375 24.2822 58.9971 25.1299 60.4258 25.1299ZM60.6445 24.0977C59.79 24.0977 59.1543 23.6602 59.1543 22.9082C59.1543 22.1699 59.6465 21.7803 60.7676 21.7051L62.75 21.5752V22.252C62.75 23.3047 61.8545 24.0977 60.6445 24.0977ZM66.168 25H67.3438V14.7051H66.168V25ZM71.6777 25.1299C72.6621 25.1299 73.4688 24.6992 73.9473 23.9131H74.0566V25H75.1777V19.9551C75.1777 18.4238 74.1729 17.501 72.375 17.501C70.8027 17.501 69.6406 18.2803 69.4834 19.4629H70.6729C70.8369 18.8818 71.4521 18.5469 72.334 18.5469C73.4346 18.5469 74.002 19.0459 74.002 19.9551V20.625L71.876 20.7549C70.1602 20.8574 69.1895 21.6162 69.1895 22.9355C69.1895 24.2822 70.249 25.1299 71.6777 25.1299ZM71.8965 24.0977C71.042 24.0977 70.4062 23.6602 70.4062 22.9082C70.4062 22.1699 70.8984 21.7803 72.0195 21.7051L74.002 21.5752V22.252C74.002 23.3047 73.1064 24.0977 71.8965 24.0977ZM77.3516 25H78.5273V20.6387C78.5273 19.3467 79.2861 18.5605 80.4619 18.5605C81.6377 18.5605 82.1982 19.1895 82.1982 20.5156V25H83.374V20.2285C83.374 18.4785 82.4512 17.501 80.7969 17.501C79.6689 17.501 78.9512 17.9795 78.582 18.793H78.4727V17.6309H77.3516V25ZM91.625 19.8867C91.4199 18.5742 90.3262 17.501 88.5352 17.501C86.4707 17.501 85.1582 18.9912 85.1582 21.2881C85.1582 23.6328 86.4775 25.1299 88.542 25.1299C90.3125 25.1299 91.4131 24.1318 91.625 22.7783H90.4355C90.2168 23.6123 89.5264 24.0703 88.5352 24.0703C87.2227 24.0703 86.375 22.9902 86.375 21.2881C86.375 19.6201 87.209 18.5605 88.5352 18.5605C89.5947 18.5605 90.2441 19.1553 90.4355 19.8867H91.625ZM98.2422 23.0928C97.9346 23.7422 97.292 24.0908 96.3418 24.0908C95.0908 24.0908 94.2773 23.168 94.2158 21.7119V21.6572H99.5137V21.2061C99.5137 18.916 98.3037 17.501 96.3145 17.501C94.291 17.501 92.9922 19.0049 92.9922 21.3223C92.9922 23.6533 94.2705 25.1299 96.3145 25.1299C97.9277 25.1299 99.0762 24.3506 99.418 23.0928H98.2422ZM96.3008 18.54C97.4697 18.54 98.249 19.4014 98.2764 20.707H94.2158C94.3047 19.4014 95.125 18.54 96.3008 18.54Z" fill="#828282"/>
<path d="M18.4102 54H21.9141V37.0898H18.3984L14.0273 40.125V43.3125L18.3398 40.3359H18.4102V54ZM32.3438 54.375C36.4102 54.375 39.1992 52.3594 39.1992 49.4297C39.1992 47.2031 37.5938 45.4805 35.2266 45.082V45.0117C37.1953 44.543 38.5078 43.0312 38.5078 41.1914C38.5078 38.5898 35.9766 36.7148 32.3438 36.7148C28.7227 36.7148 26.168 38.6016 26.168 41.1797C26.168 43.043 27.4922 44.5547 29.4609 45.0117V45.082C27.1055 45.4688 25.4883 47.1914 25.4883 49.418C25.4883 52.3477 28.2422 54.375 32.3438 54.375ZM32.3438 51.7969C30.4805 51.7969 29.1797 50.6836 29.1797 49.1602C29.1797 47.6367 30.4805 46.5234 32.3438 46.5234C34.207 46.5234 35.4961 47.6367 35.4961 49.1602C35.4961 50.6836 34.207 51.7969 32.3438 51.7969ZM32.3438 43.9453C30.7734 43.9453 29.6719 42.9609 29.6719 41.6133C29.6719 40.2656 30.7734 39.2695 32.3438 39.2695C33.9023 39.2695 35.0156 40.2539 35.0156 41.6133C35.0156 42.9609 33.9023 43.9453 32.3438 43.9453ZM43.5938 57.1758L45.1992 50.8359H41.9766L41.0039 57.1758H43.5938ZM54.1289 54.375C58.3828 54.375 60.9609 50.9648 60.9609 45.5039C60.9609 40.043 58.3594 36.7031 54.1289 36.7031C49.8984 36.7031 47.2852 40.0547 47.2852 45.5156C47.2852 50.9883 49.875 54.375 54.1289 54.375ZM54.1289 51.5391C52.1133 51.5391 50.8828 49.3594 50.8828 45.5156C50.8828 41.707 52.1367 39.5391 54.1289 39.5391C56.1328 39.5391 57.3633 41.6953 57.3633 45.5156C57.3633 49.3711 56.1445 51.5391 54.1289 51.5391ZM67.2539 54H70.7578V37.0898H67.2422L62.8711 40.125V43.3125L67.1836 40.3359H67.2539V54ZM81.1758 54.375C85.4297 54.375 88.0078 50.9648 88.0078 45.5039C88.0078 40.043 85.4062 36.7031 81.1758 36.7031C76.9453 36.7031 74.332 40.0547 74.332 45.5156C74.332 50.9883 76.9219 54.375 81.1758 54.375ZM81.1758 51.5391C79.1602 51.5391 77.9297 49.3594 77.9297 45.5156C77.9297 41.707 79.1836 39.5391 81.1758 39.5391C83.1797 39.5391 84.4102 41.6953 84.4102 45.5156C84.4102 49.3711 83.1914 51.5391 81.1758 51.5391ZM91.7461 54.1406C92.8008 54.1406 93.6328 53.2969 93.6328 52.2539C93.6328 51.1992 92.8008 50.3672 91.7461 50.3672C90.6914 50.3672 89.8594 51.1992 89.8594 52.2539C89.8594 53.2969 90.6914 54.1406 91.7461 54.1406ZM102.551 54.375C106.805 54.375 109.383 50.9648 109.383 45.5039C109.383 40.043 106.781 36.7031 102.551 36.7031C98.3203 36.7031 95.707 40.0547 95.707 45.5156C95.707 50.9883 98.2969 54.375 102.551 54.375ZM102.551 51.5391C100.535 51.5391 99.3047 49.3594 99.3047 45.5156C99.3047 41.707 100.559 39.5391 102.551 39.5391C104.555 39.5391 105.785 41.6953 105.785 45.5156C105.785 49.3711 104.566 51.5391 102.551 51.5391ZM118.184 54.375C122.438 54.375 125.016 50.9648 125.016 45.5039C125.016 40.043 122.414 36.7031 118.184 36.7031C113.953 36.7031 111.34 40.0547 111.34 45.5156C111.34 50.9883 113.93 54.375 118.184 54.375ZM118.184 51.5391C116.168 51.5391 114.938 49.3594 114.938 45.5156C114.938 41.707 116.191 39.5391 118.184 39.5391C120.188 39.5391 121.418 41.6953 121.418 45.5156C121.418 49.3711 120.199 51.5391 118.184 51.5391Z" fill="black"/>
<path d="M145.172 54V37.0898H143.566V44.6133H133.676V37.0898H132.082V54H133.676V46.0664H143.566V54H145.172ZM149.941 54V47.9648L152.027 45.7031L158.742 54H160.793L153.152 44.5664L160.102 37.0898H158.074L150.035 45.8555H149.941V37.0898H148.348V54H149.941ZM162.527 37.0898V54H168.094C173.168 54 176.109 50.8945 176.109 45.5391C176.109 40.1953 173.156 37.0898 168.094 37.0898H162.527ZM164.133 38.543H168C172.16 38.543 174.48 41.0508 174.48 45.5508C174.48 50.0391 172.16 52.5469 168 52.5469H164.133V38.543Z" fill="#828282"/>
<rect x="225" y="34" width="98" height="26" rx="13" fill="black"/>
<path d="M239.5 46.5V43.5H238.5V46.5H235.5V47.5H238.5V50.5H239.5V47.5H242.5V46.5H239.5Z" fill="white"/>
<path d="M255.574 51H256.682L253.564 42.5449H252.521L249.404 51H250.512L251.361 48.5801H254.725L255.574 51ZM252.996 43.9102H253.09L254.414 47.6836H251.672L252.996 43.9102ZM260.021 51.1113C260.895 51.1113 261.645 50.6953 262.043 49.9922H262.137V51H263.098V42.1758H262.09V45.6797H262.002C261.645 44.9883 260.9 44.5723 260.021 44.5723C258.416 44.5723 257.367 45.8613 257.367 47.8418C257.367 49.8281 258.404 51.1113 260.021 51.1113ZM260.256 45.4805C261.398 45.4805 262.113 46.3945 262.113 47.8418C262.113 49.3008 261.404 50.2031 260.256 50.2031C259.102 50.2031 258.41 49.3184 258.41 47.8418C258.41 46.3711 259.107 45.4805 260.256 45.4805ZM267.393 51.1113C268.266 51.1113 269.016 50.6953 269.414 49.9922H269.508V51H270.469V42.1758H269.461V45.6797H269.373C269.016 44.9883 268.271 44.5723 267.393 44.5723C265.787 44.5723 264.738 45.8613 264.738 47.8418C264.738 49.8281 265.775 51.1113 267.393 51.1113ZM267.627 45.4805C268.77 45.4805 269.484 46.3945 269.484 47.8418C269.484 49.3008 268.775 50.2031 267.627 50.2031C266.473 50.2031 265.781 49.3184 265.781 47.8418C265.781 46.3711 266.479 45.4805 267.627 45.4805ZM275.812 51H276.82V47.0859C276.82 46.1953 277.459 45.4805 278.285 45.4805C279.082 45.4805 279.604 45.9609 279.604 46.7109V51H280.611V46.9395C280.611 46.1367 281.197 45.4805 282.076 45.4805C282.967 45.4805 283.406 45.9375 283.406 46.8691V51H284.414V46.6348C284.414 45.3105 283.693 44.5723 282.404 44.5723C281.531 44.5723 280.811 45.0117 280.471 45.6797H280.377C280.084 45.0234 279.486 44.5723 278.631 44.5723C277.787 44.5723 277.154 44.9766 276.867 45.6797H276.773V44.6836H275.812V51ZM288.85 51.1113C290.648 51.1113 291.762 49.8691 291.762 47.8418C291.762 45.8086 290.648 44.5723 288.85 44.5723C287.051 44.5723 285.938 45.8086 285.938 47.8418C285.938 49.8691 287.051 51.1113 288.85 51.1113ZM288.85 50.2031C287.654 50.2031 286.98 49.3359 286.98 47.8418C286.98 46.3418 287.654 45.4805 288.85 45.4805C290.045 45.4805 290.719 46.3418 290.719 47.8418C290.719 49.3359 290.045 50.2031 288.85 50.2031ZM293.344 51H294.352V47.2617C294.352 46.1543 295.002 45.4805 296.01 45.4805C297.018 45.4805 297.498 46.0195 297.498 47.1562V51H298.506V46.9102C298.506 45.4102 297.715 44.5723 296.297 44.5723C295.33 44.5723 294.715 44.9824 294.398 45.6797H294.305V44.6836H293.344V51ZM304.535 49.3652C304.271 49.9219 303.721 50.2207 302.906 50.2207C301.834 50.2207 301.137 49.4297 301.084 48.1816V48.1348H305.625V47.748C305.625 45.7852 304.588 44.5723 302.883 44.5723C301.148 44.5723 300.035 45.8613 300.035 47.8477C300.035 49.8457 301.131 51.1113 302.883 51.1113C304.266 51.1113 305.25 50.4434 305.543 49.3652H304.535ZM302.871 45.4629C303.873 45.4629 304.541 46.2012 304.564 47.3203H301.084C301.16 46.2012 301.863 45.4629 302.871 45.4629ZM307.629 53.2852C308.748 53.2852 309.252 52.8516 309.791 51.3867L312.258 44.6836H311.186L309.457 49.8809H309.363L307.629 44.6836H306.539L308.877 51.0059L308.76 51.3809C308.496 52.1426 308.18 52.418 307.6 52.418C307.459 52.418 307.301 52.4121 307.178 52.3887V53.25C307.318 53.2734 307.494 53.2852 307.629 53.2852Z" fill="white"/>
<rect x="0.5" y="0.5" width="334" height="71" rx="7.5" stroke="#ECECEB"/>
</svg>
