<svg width="96" height="96" viewBox="0 0 96 96" fill="none" xmlns="http://www.w3.org/2000/svg">
<path d="M64.5 29.25V24.75C64.5 24.3375 64.1625 24 63.75 24H27.75C27.3375 24 27 24.3375 27 24.75V29.25C27 29.6625 27.3375 30 27.75 30H63.75C64.1625 30 64.5 29.6625 64.5 29.25ZM27.75 37.5C27.3375 37.5 27 37.8375 27 38.25V42.75C27 43.1625 27.3375 43.5 27.75 43.5H45C45.4125 43.5 45.75 43.1625 45.75 42.75V38.25C45.75 37.8375 45.4125 37.5 45 37.5H27.75ZM63 48.375C51.8156 48.375 42.75 57.4406 42.75 68.625C42.75 79.8094 51.8156 88.875 63 88.875C74.1844 88.875 83.25 79.8094 83.25 68.625C83.25 57.4406 74.1844 48.375 63 48.375ZM73.0781 78.7031C70.3875 81.3938 66.8062 82.875 63 82.875C59.1938 82.875 55.6125 81.3938 52.9219 78.7031C50.2312 76.0125 48.75 72.4312 48.75 68.625C48.75 64.8188 50.2312 61.2375 52.9219 58.5469C55.6125 55.8562 59.1938 54.375 63 54.375C66.8062 54.375 70.3875 55.8562 73.0781 58.5469C75.7688 61.2375 77.25 64.8188 77.25 68.625C77.25 72.4312 75.7688 76.0125 73.0781 78.7031ZM71.3438 61.5H67.1906C66.9469 61.5 66.7219 61.6125 66.5813 61.8094L60.6281 70.0406L58.4625 67.05C58.3931 66.9534 58.3016 66.8749 58.1955 66.821C58.0895 66.7672 57.972 66.7396 57.8531 66.7406H53.7188C53.1094 66.7406 52.7531 67.4344 53.1094 67.9312L60.0281 77.5031C60.3281 77.9156 60.9375 77.9156 61.2375 77.5031L71.9438 62.6906C72.3094 62.1938 71.9531 61.5 71.3438 61.5ZM41.25 79.875H19.5V13.875H72V46.125C72 46.5375 72.3375 46.875 72.75 46.875H78C78.4125 46.875 78.75 46.5375 78.75 46.125V10.125C78.75 8.46562 77.4094 7.125 75.75 7.125H15.75C14.0906 7.125 12.75 8.46562 12.75 10.125V83.625C12.75 85.2844 14.0906 86.625 15.75 86.625H41.25C41.6625 86.625 42 86.2875 42 85.875V80.625C42 80.2125 41.6625 79.875 41.25 79.875Z" fill="#523AE5"/>
</svg>
