<svg width="32" height="32" viewBox="0 0 32 32" fill="none" xmlns="http://www.w3.org/2000/svg">
<rect width="32" height="32" rx="4" fill="#FFDB1D"/>
<path d="M16 26C10.477 26 6 21.523 6 16C6 10.477 10.477 6 16 6C21.523 6 26 10.477 26 16C26 21.523 21.523 26 16 26ZM16 24C18.1217 24 20.1566 23.1571 21.6569 21.6569C23.1571 20.1566 24 18.1217 24 16C24 13.8783 23.1571 11.8434 21.6569 10.3431C20.1566 8.84285 18.1217 8 16 8C13.8783 8 11.8434 8.84285 10.3431 10.3431C8.84285 11.8434 8 13.8783 8 16C8 18.1217 8.84285 20.1566 10.3431 21.6569C11.8434 23.1571 13.8783 24 16 24V24ZM15 20H12V12H15V10H17V12H18C18.4643 12 18.9194 12.1293 19.3143 12.3734C19.7093 12.6175 20.0284 12.9667 20.2361 13.382C20.4437 13.7972 20.5316 14.2621 20.4899 14.7245C20.4482 15.1869 20.2786 15.6286 20 16C20.2786 16.3714 20.4482 16.8131 20.4899 17.2755C20.5316 17.7379 20.4437 18.2028 20.2361 18.618C20.0284 19.0333 19.7093 19.3825 19.3143 19.6266C18.9194 19.8707 18.4643 20 18 20H17V22H15V20ZM14 17V18H18C18.1326 18 18.2598 17.9473 18.3536 17.8536C18.4473 17.7598 18.5 17.6326 18.5 17.5C18.5 17.3674 18.4473 17.2402 18.3536 17.1464C18.2598 17.0527 18.1326 17 18 17H14ZM14 14V15H18C18.1326 15 18.2598 14.9473 18.3536 14.8536C18.4473 14.7598 18.5 14.6326 18.5 14.5C18.5 14.3674 18.4473 14.2402 18.3536 14.1464C18.2598 14.0527 18.1326 14 18 14H14Z" fill="white"/>
</svg>
