<svg width="56" height="32" viewBox="0 0 56 32" fill="none" xmlns="http://www.w3.org/2000/svg">
<path d="M35 23.0001V13.7991L28 8.27708L21 13.7991V23.0001H35ZM37 24.0001C37 24.2653 36.8946 24.5197 36.7071 24.7072C36.5196 24.8947 36.2652 25.0001 36 25.0001H20C19.7348 25.0001 19.4804 24.8947 19.2929 24.7072C19.1054 24.5197 19 24.2653 19 24.0001V13.3141C18.9999 13.163 19.0341 13.0139 19.0999 12.878C19.1657 12.742 19.2615 12.6227 19.38 12.5291L27.38 6.21808C27.5565 6.07857 27.775 6.00269 28 6.00269C28.225 6.00269 28.4435 6.07857 28.62 6.21808L36.62 12.5281C36.7386 12.6218 36.8345 12.7413 36.9003 12.8774C36.9661 13.0136 37.0002 13.1629 37 13.3141V24.0001ZM23 16.0001H25C25 16.7957 25.3161 17.5588 25.8787 18.1214C26.4413 18.684 27.2044 19.0001 28 19.0001C28.7956 19.0001 29.5587 18.684 30.1213 18.1214C30.6839 17.5588 31 16.7957 31 16.0001H33C33 17.3262 32.4732 18.5979 31.5355 19.5356C30.5979 20.4733 29.3261 21.0001 28 21.0001C26.6739 21.0001 25.4021 20.4733 24.4645 19.5356C23.5268 18.5979 23 17.3262 23 16.0001Z" fill="white"/>
</svg>
