<svg width="96" height="96" viewBox="0 0 96 96" fill="none" xmlns="http://www.w3.org/2000/svg">
<path fill-rule="evenodd" clip-rule="evenodd" d="M49.4156 5.07187L81.2719 15.9281C82.05 16.2 82.6875 17.0906 82.6687 17.9156V63.1406C82.6687 63.975 82.1344 65.0625 81.4875 65.5687L49.1719 90.75C48.8531 91.0031 48.4219 91.1344 47.9906 91.1344C47.5594 91.1344 47.1375 91.0031 46.8094 90.75L14.4938 65.5687C13.8469 65.0531 13.3125 63.9656 13.3125 63.1406V17.9156C13.3125 17.0906 13.95 16.1906 14.7281 15.9281L46.5844 5.07187C46.9688 4.94062 47.4844 4.875 48 4.875C48.5156 4.875 49.0312 4.94062 49.4156 5.07187ZM48 83.1094L75.9375 61.3406V21.2531L48 11.7281L20.0625 21.2531V61.3406L48 83.1094Z" fill="#523AE5"/>
</svg>
