<svg width="96" height="96" viewBox="0 0 96 96" fill="none" xmlns="http://www.w3.org/2000/svg">
<path d="M30 21H23.8125V15.75C23.8125 15.3375 23.475 15 23.0625 15H18.1875C17.775 15 17.4375 15.3375 17.4375 15.75V21H11.25C10.8375 21 10.5 21.3375 10.5 21.75V74.25C10.5 74.6625 10.8375 75 11.25 75H17.4375V80.25C17.4375 80.6625 17.775 81 18.1875 81H23.0625C23.475 81 23.8125 80.6625 23.8125 80.25V75H30C30.4125 75 30.75 74.6625 30.75 74.25V21.75C30.75 21.3375 30.4125 21 30 21ZM24.375 68.625H16.875V27.375H24.375V68.625ZM84.75 27.75H78.5625V18.75C78.5625 18.3375 78.225 18 77.8125 18H72.9375C72.525 18 72.1875 18.3375 72.1875 18.75V27.75H66C65.5875 27.75 65.25 28.0875 65.25 28.5V67.5C65.25 67.9125 65.5875 68.25 66 68.25H72.1875V77.25C72.1875 77.6625 72.525 78 72.9375 78H77.8125C78.225 78 78.5625 77.6625 78.5625 77.25V68.25H84.75C85.1625 68.25 85.5 67.9125 85.5 67.5V28.5C85.5 28.0875 85.1625 27.75 84.75 27.75ZM79.125 61.875H71.625V34.125H79.125V61.875ZM57.375 37.875H51.1875V21.75C51.1875 21.3375 50.85 21 50.4375 21H45.5625C45.15 21 44.8125 21.3375 44.8125 21.75V37.875H38.625C38.2125 37.875 37.875 38.2125 37.875 38.625V57.375C37.875 57.7875 38.2125 58.125 38.625 58.125H44.8125V74.25C44.8125 74.6625 45.15 75 45.5625 75H50.4375C50.85 75 51.1875 74.6625 51.1875 74.25V58.125H57.375C57.7875 58.125 58.125 57.7875 58.125 57.375V38.625C58.125 38.2125 57.7875 37.875 57.375 37.875ZM51.75 51.4688C51.75 51.5433 51.7204 51.6149 51.6676 51.6676C51.6149 51.7204 51.5433 51.75 51.4688 51.75H44.5312C44.4567 51.75 44.3851 51.7204 44.3324 51.6676C44.2796 51.6149 44.25 51.5433 44.25 51.4688V44.5312C44.25 44.4567 44.2796 44.3851 44.3324 44.3324C44.3851 44.2796 44.4567 44.25 44.5312 44.25H51.4688C51.5433 44.25 51.6149 44.2796 51.6676 44.3324C51.7204 44.3851 51.75 44.4567 51.75 44.5312V51.4688Z" fill="#523AE5"/>
</svg>
