<svg width="32" height="32" viewBox="0 0 32 32" fill="none" xmlns="http://www.w3.org/2000/svg">
<rect width="32" height="32" rx="4" fill="#E87722"/>
<path d="M23 24.9999H9C8.73478 24.9999 8.48043 24.8946 8.29289 24.707C8.10536 24.5195 8 24.2651 8 23.9999V14.9999H5L15.327 5.61192C15.5111 5.4444 15.7511 5.35156 16 5.35156C16.2489 5.35156 16.4889 5.4444 16.673 5.61192L27 14.9999H24V23.9999C24 24.2651 23.8946 24.5195 23.7071 24.707C23.5196 24.8946 23.2652 24.9999 23 24.9999ZM10 22.9999H22V13.1569L16 7.70292L10 13.1569V22.9999ZM13 13.9999H19V19.9999H13V13.9999ZM15 15.9999V17.9999H17V15.9999H15Z" fill="white"/>
</svg>
