<svg width="32" height="33" viewBox="0 0 32 33" fill="none" xmlns="http://www.w3.org/2000/svg">
<rect y="0.5" width="32" height="32" rx="4" fill="#9C43FF"/>
<path d="M10.5 6.5H21.5C21.6552 6.5 21.8084 6.53614 21.9472 6.60557C22.0861 6.675 22.2069 6.7758 22.3 6.9L25 10.5V25.5C25 25.7652 24.8946 26.0196 24.7071 26.2071C24.5196 26.3946 24.2652 26.5 24 26.5H8C7.73478 26.5 7.48043 26.3946 7.29289 26.2071C7.10536 26.0196 7 25.7652 7 25.5V10.5L9.7 6.9C9.79315 6.7758 9.91393 6.675 10.0528 6.60557C10.1916 6.53614 10.3448 6.5 10.5 6.5ZM23 12.5H9V24.5H23V12.5ZM22.5 10.5L21 8.5H11L9.5 10.5H22.5ZM13 14.5V16.5C13 17.2956 13.3161 18.0587 13.8787 18.6213C14.4413 19.1839 15.2044 19.5 16 19.5C16.7956 19.5 17.5587 19.1839 18.1213 18.6213C18.6839 18.0587 19 17.2956 19 16.5V14.5H21V16.5C21 17.8261 20.4732 19.0979 19.5355 20.0355C18.5979 20.9732 17.3261 21.5 16 21.5C14.6739 21.5 13.4021 20.9732 12.4645 20.0355C11.5268 19.0979 11 17.8261 11 16.5V14.5H13Z" fill="white"/>
</svg>
