<svg fill="none" height="32" viewBox="0 0 56 32" width="56" xmlns="http://www.w3.org/2000/svg"><path d="m27 6.05007v2.012c-3.946.492-7 3.85803-7 7.93803 0 4.418 3.582 8 8 8 1.849 0 3.55-.627 4.906-1.68l1.423 1.423c-1.724 1.41-3.929 2.257-6.329 2.257-5.523 0-10-4.477-10-10 0-5.185 3.947-9.44903 9-9.95003zm10.95 10.95003c-.2 2.011-.994 3.847-2.207 5.328l-1.423-1.422c.86-1.107 1.436-2.445 1.618-3.906h2.013zm-8.948-10.95003c4.724.469 8.48 4.22603 8.95 8.95003h-2.013c-.451-3.618-3.319-6.48603-6.937-6.93803v-2.013z" fill="#fff"/></svg>