<svg width="56" height="32" viewBox="0 0 56 32" fill="none" xmlns="http://www.w3.org/2000/svg">
<path d="M27 6.05007V9.07007C23.608 9.55707 21 12.4751 21 16.0001C21 19.8661 24.134 23.0001 28 23.0001C29.572 23.0001 31.024 22.4821 32.192 21.6061L34.329 23.7431C32.605 25.1531 30.4 26.0001 28 26.0001C22.477 26.0001 18 21.5231 18 16.0001C18 10.8151 21.947 6.55107 27 6.05007ZM37.95 17.0001C37.75 19.0111 36.956 20.8471 35.743 22.3281L33.606 20.1921C34.293 19.2761 34.759 18.1861 34.929 17.0001H37.951H37.95ZM29.002 6.05007C33.726 6.51907 37.482 10.2761 37.952 15.0001H34.93C34.492 11.9351 32.067 9.51007 29.002 9.07107V6.04907V6.05007Z" fill="#DEFA3D"/>
</svg>
