<svg width="96" height="96" viewBox="0 0 96 96" fill="none" xmlns="http://www.w3.org/2000/svg">
<path d="M12.75 36H18C18.4125 36 18.75 35.6625 18.75 35.25V18.75H35.25C35.6625 18.75 36 18.4125 36 18V12.75C36 12.3375 35.6625 12 35.25 12H18.375C14.85 12 12 14.85 12 18.375V35.25C12 35.6625 12.3375 36 12.75 36ZM60.75 18.75H77.25V35.25C77.25 35.6625 77.5875 36 78 36H83.25C83.6625 36 84 35.6625 84 35.25V18.375C84 14.85 81.15 12 77.625 12H60.75C60.3375 12 60 12.3375 60 12.75V18C60 18.4125 60.3375 18.75 60.75 18.75ZM35.25 77.25H18.75V60.75C18.75 60.3375 18.4125 60 18 60H12.75C12.3375 60 12 60.3375 12 60.75V77.625C12 81.15 14.85 84 18.375 84H35.25C35.6625 84 36 83.6625 36 83.25V78C36 77.5875 35.6625 77.25 35.25 77.25ZM83.25 60H78C77.5875 60 77.25 60.3375 77.25 60.75V77.25H60.75C60.3375 77.25 60 77.5875 60 78V83.25C60 83.6625 60.3375 84 60.75 84H77.625C81.15 84 84 81.15 84 77.625V60.75C84 60.3375 83.6625 60 83.25 60ZM84.75 44.625H11.25C10.8375 44.625 10.5 44.9625 10.5 45.375V50.625C10.5 51.0375 10.8375 51.375 11.25 51.375H84.75C85.1625 51.375 85.5 51.0375 85.5 50.625V45.375C85.5 44.9625 85.1625 44.625 84.75 44.625Z" fill="#523AE5"/>
</svg>
