<svg width="32" height="32" viewBox="0 0 32 32" fill="none" xmlns="http://www.w3.org/2000/svg">
<rect width="32" height="32" rx="4" fill="#D533A3"/>
<path d="M23 24H9V25C9 25.2652 8.89464 25.5196 8.70711 25.7071C8.51957 25.8946 8.26522 26 8 26H7C6.73478 26 6.48043 25.8946 6.29289 25.7071C6.10536 25.5196 6 25.2652 6 25V15L8.48 9.212C8.63432 8.852 8.89096 8.54524 9.21805 8.32978C9.54515 8.11432 9.92832 7.99965 10.32 8H21.68C22.0713 8.00004 22.4541 8.1149 22.7808 8.33033C23.1075 8.54577 23.3638 8.85231 23.518 9.212L26 15V25C26 25.2652 25.8946 25.5196 25.7071 25.7071C25.5196 25.8946 25.2652 26 25 26H24C23.7348 26 23.4804 25.8946 23.2929 25.7071C23.1054 25.5196 23 25.2652 23 25V24ZM24 17H8V22H24V17ZM8.176 15H23.824L21.681 10H10.32L8.177 15H8.176ZM10.5 21C10.1022 21 9.72064 20.842 9.43934 20.5607C9.15804 20.2794 9 19.8978 9 19.5C9 19.1022 9.15804 18.7206 9.43934 18.4393C9.72064 18.158 10.1022 18 10.5 18C10.8978 18 11.2794 18.158 11.5607 18.4393C11.842 18.7206 12 19.1022 12 19.5C12 19.8978 11.842 20.2794 11.5607 20.5607C11.2794 20.842 10.8978 21 10.5 21V21ZM21.5 21C21.1022 21 20.7206 20.842 20.4393 20.5607C20.158 20.2794 20 19.8978 20 19.5C20 19.1022 20.158 18.7206 20.4393 18.4393C20.7206 18.158 21.1022 18 21.5 18C21.8978 18 22.2794 18.158 22.5607 18.4393C22.842 18.7206 23 19.1022 23 19.5C23 19.8978 22.842 20.2794 22.5607 20.5607C22.2794 20.842 21.8978 21 21.5 21V21Z" fill="white"/>
</svg>
