<svg width="32" height="32" viewBox="0 0 32 32" fill="none" xmlns="http://www.w3.org/2000/svg">
<rect width="32" height="32" rx="4" fill="#3B8CFF"/>
<path d="M7 21.9999H25C25.0929 21.9999 25.1839 22.0258 25.2629 22.0746C25.3419 22.1234 25.4057 22.1932 25.4472 22.2763C25.4887 22.3593 25.5063 22.4523 25.498 22.5448C25.4896 22.6373 25.4557 22.7256 25.4 22.7999L23.3 25.5999C23.2069 25.7241 23.0861 25.8249 22.9472 25.8943C22.8084 25.9637 22.6552 25.9999 22.5 25.9999H9.5C9.34476 25.9999 9.19164 25.9637 9.05279 25.8943C8.91393 25.8249 8.79315 25.7241 8.7 25.5999L6.6 22.7999C6.54429 22.7256 6.51036 22.6373 6.50202 22.5448C6.49368 22.4523 6.51126 22.3593 6.55279 22.2763C6.59431 22.1932 6.65815 22.1234 6.73713 22.0746C6.81612 22.0258 6.90714 21.9999 7 21.9999V21.9999ZM11.161 17.9999H17V10.7019L11.161 17.9999ZM19 6.42489V18.9999C19 19.2651 18.8946 19.5195 18.7071 19.707C18.5196 19.8945 18.2652 19.9999 18 19.9999H8.04C7.94592 19.9998 7.85378 19.9731 7.77417 19.9229C7.69457 19.8728 7.63074 19.8012 7.59 19.7164C7.54927 19.6316 7.53329 19.537 7.5439 19.4435C7.55452 19.35 7.59129 19.2614 7.65 19.1879L18.11 6.11289C18.1748 6.03218 18.2629 5.97355 18.3624 5.94508C18.4619 5.91661 18.5678 5.9197 18.6654 5.95393C18.7631 5.98817 18.8477 6.05185 18.9076 6.1362C18.9675 6.22055 18.9998 6.32142 19 6.42489Z" fill="white"/>
</svg>
