<svg width="56" height="32" viewBox="0 0 56 32" fill="none" xmlns="http://www.w3.org/2000/svg">
<path d="M34 11H37C37.2652 11 37.5196 11.1054 37.7071 11.2929C37.8946 11.4804 38 11.7348 38 12V24C38 24.2652 37.8946 24.5196 37.7071 24.7071C37.5196 24.8946 37.2652 25 37 25H19C18.7348 25 18.4804 24.8946 18.2929 24.7071C18.1054 24.5196 18 24.2652 18 24V8C18 7.73478 18.1054 7.48043 18.2929 7.29289C18.4804 7.10536 18.7348 7 19 7H34V11ZM20 13V23H36V13H20ZM20 9V11H32V9H20ZM31 17H34V19H31V17Z" fill="white"/>
</svg>
