<svg width="56" height="32" viewBox="0 0 56 32" fill="none" xmlns="http://www.w3.org/2000/svg">
<path d="M27 6.05007V8.06207C23.054 8.55407 20 11.9201 20 16.0001C20 20.4181 23.582 24.0001 28 24.0001C29.849 24.0001 31.55 23.3731 32.906 22.3201L34.329 23.7431C32.605 25.1531 30.4 26.0001 28 26.0001C22.477 26.0001 18 21.5231 18 16.0001C18 10.8151 21.947 6.55107 27 6.05007ZM37.95 17.0001C37.75 19.0111 36.956 20.8471 35.743 22.3281L34.32 20.9061C35.18 19.7991 35.756 18.4611 35.938 17.0001H37.951H37.95ZM29.002 6.05007C33.726 6.51907 37.482 10.2761 37.952 15.0001H35.939C35.488 11.3821 32.62 8.51407 29.002 8.06207V6.04907V6.05007Z" fill="white"/>
</svg>
