<svg width="19" height="19" viewBox="0 0 19 19" fill="none" xmlns="http://www.w3.org/2000/svg">
<path d="M12.9139 8.90538H6.08579C6.00415 8.90538 5.93736 8.97218 5.93736 9.05382V9.94444C5.93736 10.0261 6.00415 10.0929 6.08579 10.0929H12.9139C12.9956 10.0929 13.0624 10.0261 13.0624 9.94444V9.05382C13.0624 8.97218 12.9956 8.90538 12.9139 8.90538Z" fill="#A0A0A0"/>
<path d="M9.5 1.1875C4.90957 1.1875 1.1875 4.90957 1.1875 9.5C1.1875 14.0904 4.90957 17.8125 9.5 17.8125C14.0904 17.8125 17.8125 14.0904 17.8125 9.5C17.8125 4.90957 14.0904 1.1875 9.5 1.1875ZM9.5 16.4023C5.68887 16.4023 2.59766 13.3111 2.59766 9.5C2.59766 5.68887 5.68887 2.59766 9.5 2.59766C13.3111 2.59766 16.4023 5.68887 16.4023 9.5C16.4023 13.3111 13.3111 16.4023 9.5 16.4023Z" fill="#A0A0A0"/>
</svg>
